<svg version="1.1" xmlns="http://www.w3.org/2000/svg" xmlns:xlink="http://www.w3.org/1999/xlink" width="1066.4" height="830.4000000000001"><defs><linearGradient id="FIdySHmGKseQ" x1="2143.0000007152557px" x2="2454.2px" y1="2457.483339413007px" y2="2424.9500060796736px" gradientUnits="userSpaceOnUse"><stop offset="0" stop-color="rgb(132,80,186)" stop-opacity="1"/><stop offset="1" stop-color="rgb(132,80,186)" stop-opacity="1"/></linearGradient><linearGradient id="KrNgEHXbekEh" x1="2143.0000007152557px" x2="2454.2px" y1="2457.483339413007px" y2="2424.9500060796736px" gradientUnits="userSpaceOnUse"><stop offset="0" stop-color="rgb(132,80,186)" stop-opacity="1"/><stop offset="1" stop-color="rgb(132,80,186)" stop-opacity="1"/></linearGradient><linearGradient id="DCbBvfIDwFFs" x1="300px" x2="1079.5000003576279px" y1="341.5px" y2="1178.6333354791004px" gradientUnits="userSpaceOnUse"><stop offset="0" stop-color="rgb(255,193,7)" stop-opacity="1"/><stop offset="1" stop-color="rgb(132,80,186)" stop-opacity="1"/></linearGradient><linearGradient id="duIbsNcEsyQu" x1="300px" x2="1079.5000003576279px" y1="341.5px" y2="1178.6333354791004px" gradientUnits="userSpaceOnUse"><stop offset="0" stop-color="rgb(255,193,7)" stop-opacity="1"/><stop offset="1" stop-color="rgb(132,80,186)" stop-opacity="1"/></linearGradient><linearGradient id="isakDKlbeITG" x1="1079.5000003576279px" x2="2306.0000014305115px" y1="1178.6333354791004px" y2="607.5000014305115px" gradientUnits="userSpaceOnUse"><stop offset="0" stop-color="rgb(132,80,186)" stop-opacity="1"/><stop offset="1" stop-color="rgb(0,0,0)" stop-opacity="1"/></linearGradient><linearGradient id="QKeVFqTXgSKR" x1="776.5px" x2="1329.0000007152557px" y1="1429.1333354791004px" y2="1529.1333354791004px" gradientUnits="userSpaceOnUse"><stop offset="0" stop-color="rgb(255,193,7)" stop-opacity="1"/><stop offset="1" stop-color="rgb(211,211,211)" stop-opacity="1"/></linearGradient><linearGradient id="wGooMghqQvTM" x1="1603.0000007152557px" x2="1103.0000007152557px" y1="1568.1333354791004px" y2="3312.8333426316576px" gradientUnits="userSpaceOnUse"><stop offset="0" stop-color="rgb(211,211,211)" stop-opacity="1"/><stop offset="1" stop-color="rgb(29,122,218)" stop-opacity="1"/></linearGradient><linearGradient id="kufTHzLotadw" x1="1603.0000007152557px" x2="1103.0000007152557px" y1="1568.1333354791004px" y2="3046.833341201146px" gradientUnits="userSpaceOnUse"><stop offset="0" stop-color="rgb(211,211,211)" stop-opacity="1"/><stop offset="1" stop-color="rgb(29,122,218)" stop-opacity="1"/></linearGradient><linearGradient id="EqnGrIxOewBp" x1="1603.0000007152557px" x2="500px" y1="1568.1333354791004px" y2="2647.833339055379px" gradientUnits="userSpaceOnUse"><stop offset="0" stop-color="rgb(211,211,211)" stop-opacity="1"/><stop offset="1" stop-color="rgb(29,122,218)" stop-opacity="1"/></linearGradient><linearGradient id="ANMBdwrGHTET" x1="1603.0000007152557px" x2="500px" y1="1568.1333354791004px" y2="3179.833341916402px" gradientUnits="userSpaceOnUse"><stop offset="0" stop-color="rgb(211,211,211)" stop-opacity="1"/><stop offset="1" stop-color="rgb(29,122,218)" stop-opacity="1"/></linearGradient><linearGradient id="DUiMiKdLQRGz" x1="1603.0000007152557px" x2="1103.0000007152557px" y1="1568.1333354791004px" y2="2381.8333376248675px" gradientUnits="userSpaceOnUse"><stop offset="0" stop-color="rgb(211,211,211)" stop-opacity="1"/><stop offset="1" stop-color="rgb(29,122,218)" stop-opacity="1"/></linearGradient><linearGradient id="AVWDwLgKozfR" x1="1603.0000007152557px" x2="1103.0000007152557px" y1="1568.1333354791004px" y2="2248.8333369096117px" gradientUnits="userSpaceOnUse"><stop offset="0" stop-color="rgb(211,211,211)" stop-opacity="1"/><stop offset="1" stop-color="rgb(29,122,218)" stop-opacity="1"/></linearGradient><linearGradient id="GPpsAfldpehJ" x1="1603.0000007152557px" x2="1103.0000007152557px" y1="1568.1333354791004px" y2="2780.8333397706347px" gradientUnits="userSpaceOnUse"><stop offset="0" stop-color="rgb(211,211,211)" stop-opacity="1"/><stop offset="1" stop-color="rgb(29,122,218)" stop-opacity="1"/></linearGradient><linearGradient id="BJCCBoEACSNx" x1="1603.0000007152557px" x2="1103.0000007152557px" y1="1568.1333354791004px" y2="2115.833336194356px" gradientUnits="userSpaceOnUse"><stop offset="0" stop-color="rgb(211,211,211)" stop-opacity="1"/><stop offset="1" stop-color="rgb(29,122,218)" stop-opacity="1"/></linearGradient><linearGradient id="LsrzEOWEXPRM" x1="1603.0000007152557px" x2="1103.0000007152557px" y1="1568.1333354791004px" y2="3445.8333433469134px" gradientUnits="userSpaceOnUse"><stop offset="0" stop-color="rgb(211,211,211)" stop-opacity="1"/><stop offset="1" stop-color="rgb(29,122,218)" stop-opacity="1"/></linearGradient><linearGradient id="JlzdnIukNLXZ" x1="1603.0000007152557px" x2="500px" y1="1568.1333354791004px" y2="2248.8333369096117px" gradientUnits="userSpaceOnUse"><stop offset="0" stop-color="rgb(211,211,211)" stop-opacity="1"/><stop offset="1" stop-color="rgb(29,122,218)" stop-opacity="1"/></linearGradient><linearGradient id="ryzNrsnmTVHr" x1="1603.0000007152557px" x2="500px" y1="1568.1333354791004px" y2="3445.8333433469134px" gradientUnits="userSpaceOnUse"><stop offset="0" stop-color="rgb(211,211,211)" stop-opacity="1"/><stop offset="1" stop-color="rgb(29,122,218)" stop-opacity="1"/></linearGradient><linearGradient id="POMieDOCLkyG" x1="1603.0000007152557px" x2="500px" y1="1568.1333354791004px" y2="3312.8333426316576px" gradientUnits="userSpaceOnUse"><stop offset="0" stop-color="rgb(211,211,211)" stop-opacity="1"/><stop offset="1" stop-color="rgb(29,122,218)" stop-opacity="1"/></linearGradient><linearGradient id="XMdzrQJfbVUN" x1="1603.0000007152557px" x2="1103.0000007152557px" y1="1568.1333354791004px" y2="2647.833339055379px" gradientUnits="userSpaceOnUse"><stop offset="0" stop-color="rgb(211,211,211)" stop-opacity="1"/><stop offset="1" stop-color="rgb(29,122,218)" stop-opacity="1"/></linearGradient><linearGradient id="GZokPUlogOqv" x1="1603.0000007152557px" x2="1103.0000007152557px" y1="1568.1333354791004px" y2="3179.833341916402px" gradientUnits="userSpaceOnUse"><stop offset="0" stop-color="rgb(211,211,211)" stop-opacity="1"/><stop offset="1" stop-color="rgb(29,122,218)" stop-opacity="1"/></linearGradient><linearGradient id="zLXThIWqZRrr" x1="1603.0000007152557px" x2="500px" y1="1568.1333354791004px" y2="2780.8333397706347px" gradientUnits="userSpaceOnUse"><stop offset="0" stop-color="rgb(211,211,211)" stop-opacity="1"/><stop offset="1" stop-color="rgb(29,122,218)" stop-opacity="1"/></linearGradient><linearGradient id="otFMFshUqilt" x1="1603.0000007152557px" x2="1103.0000007152557px" y1="1568.1333354791004px" y2="2514.833338340123px" gradientUnits="userSpaceOnUse"><stop offset="0" stop-color="rgb(211,211,211)" stop-opacity="1"/><stop offset="1" stop-color="rgb(29,122,218)" stop-opacity="1"/></linearGradient><linearGradient id="doOFBNeeKyIo" x1="1329.0000007152557px" x2="776.5px" y1="1529.1333354791004px" y2="2157.333336194356px" gradientUnits="userSpaceOnUse"><stop offset="0" stop-color="rgb(211,211,211)" stop-opacity="1"/><stop offset="1" stop-color="rgb(29,122,218)" stop-opacity="1"/></linearGradient><linearGradient id="KlLUsOcJleTz" x1="1603.0000007152557px" x2="500px" y1="1568.1333354791004px" y2="2514.833338340123px" gradientUnits="userSpaceOnUse"><stop offset="0" stop-color="rgb(211,211,211)" stop-opacity="1"/><stop offset="1" stop-color="rgb(29,122,218)" stop-opacity="1"/></linearGradient><linearGradient id="nNZBZZcshWdA" x1="3596.2000003576277px" x2="2306.0000014305115px" y1="1048.500002145767px" y2="341.5px" gradientUnits="userSpaceOnUse"><stop offset="0" stop-color="rgb(132,80,186)" stop-opacity="1"/><stop offset="1" stop-color="rgb(0,0,0)" stop-opacity="1"/></linearGradient><linearGradient id="GaEQeXcIklaF" x1="3596.2000003576277px" x2="2306.0000014305115px" y1="1048.500002145767px" y2="474.50000071525574px" gradientUnits="userSpaceOnUse"><stop offset="0" stop-color="rgb(132,80,186)" stop-opacity="1"/><stop offset="1" stop-color="rgb(0,0,0)" stop-opacity="1"/></linearGradient><linearGradient id="UyUMKepMeMRg" x1="3371.7px" x2="3924.2000007152556px" y1="1299.0000021457672px" y2="1399.0000021457672px" gradientUnits="userSpaceOnUse"><stop offset="0" stop-color="rgb(255,193,7)" stop-opacity="1"/><stop offset="1" stop-color="rgb(211,211,211)" stop-opacity="1"/></linearGradient><linearGradient id="gbdbexrbsins" x1="3371.7px" x2="3924.2000007152556px" y1="1565.0000035762787px" y2="1727.200002861023px" gradientUnits="userSpaceOnUse"><stop offset="0" stop-color="rgb(255,193,7)" stop-opacity="1"/><stop offset="1" stop-color="rgb(211,211,211)" stop-opacity="1"/></linearGradient><linearGradient id="XpZHDLLXmOEO" x1="4198.200000715256px" x2="3095.2px" y1="1438.0000021457672px" y2="3510.9000100135804px" gradientUnits="userSpaceOnUse"><stop offset="0" stop-color="rgb(211,211,211)" stop-opacity="1"/><stop offset="1" stop-color="rgb(29,122,218)" stop-opacity="1"/></linearGradient><linearGradient id="lTqDdyNkcsFh" x1="4198.200000715256px" x2="3095.2px" y1="1438.0000021457672px" y2="2712.900005722046px" gradientUnits="userSpaceOnUse"><stop offset="0" stop-color="rgb(211,211,211)" stop-opacity="1"/><stop offset="1" stop-color="rgb(29,122,218)" stop-opacity="1"/></linearGradient><linearGradient id="XaegcrHnApyI" x1="4198.200000715256px" x2="3095.2px" y1="1438.0000021457672px" y2="3377.9000092983247px" gradientUnits="userSpaceOnUse"><stop offset="0" stop-color="rgb(211,211,211)" stop-opacity="1"/><stop offset="1" stop-color="rgb(29,122,218)" stop-opacity="1"/></linearGradient><linearGradient id="FOOCXTcgndKB" x1="4198.200000715256px" x2="3095.2px" y1="1438.0000021457672px" y2="2978.9000071525575px" gradientUnits="userSpaceOnUse"><stop offset="0" stop-color="rgb(211,211,211)" stop-opacity="1"/><stop offset="1" stop-color="rgb(29,122,218)" stop-opacity="1"/></linearGradient><linearGradient id="CTbGltgKGxTG" x1="4198.200000715256px" x2="3095.2px" y1="1438.0000021457672px" y2="2313.900003576279px" gradientUnits="userSpaceOnUse"><stop offset="0" stop-color="rgb(211,211,211)" stop-opacity="1"/><stop offset="1" stop-color="rgb(29,122,218)" stop-opacity="1"/></linearGradient><linearGradient id="nfIrIDaXNioP" x1="4198.200000715256px" x2="3095.2px" y1="1438.0000021457672px" y2="2446.9000042915345px" gradientUnits="userSpaceOnUse"><stop offset="0" stop-color="rgb(211,211,211)" stop-opacity="1"/><stop offset="1" stop-color="rgb(29,122,218)" stop-opacity="1"/></linearGradient><linearGradient id="rzONVNifVSXW" x1="4198.200000715256px" x2="3095.2px" y1="1438.0000021457672px" y2="2579.9000050067903px" gradientUnits="userSpaceOnUse"><stop offset="0" stop-color="rgb(211,211,211)" stop-opacity="1"/><stop offset="1" stop-color="rgb(29,122,218)" stop-opacity="1"/></linearGradient><linearGradient id="MaUuJbOrqbHu" x1="4198.200000715256px" x2="3095.2px" y1="1438.0000021457672px" y2="3111.900007867813px" gradientUnits="userSpaceOnUse"><stop offset="0" stop-color="rgb(211,211,211)" stop-opacity="1"/><stop offset="1" stop-color="rgb(29,122,218)" stop-opacity="1"/></linearGradient><linearGradient id="yMAHFaZIlPmF" x1="4198.200000715256px" x2="4198.200000715256px" y1="1688.200002861023px" y2="1438.0000021457672px" gradientUnits="userSpaceOnUse"><stop offset="0" stop-color="rgb(211,211,211)" stop-opacity="1"/><stop offset="1" stop-color="rgb(211,211,211)" stop-opacity="1"/></linearGradient><linearGradient id="IuOTwpisQVvD" x1="4198.200000715256px" x2="3095.2px" y1="1766.200002861023px" y2="2845.9000064373017px" gradientUnits="userSpaceOnUse"><stop offset="0" stop-color="rgb(211,211,211)" stop-opacity="1"/><stop offset="1" stop-color="rgb(29,122,218)" stop-opacity="1"/></linearGradient></defs><g transform="translate(57.7,9.200000000000001) scale(0.2,0.2)"><path fill="rgb(244,236,255)" stroke="rgb(255,255,255)" paint-order="fill stroke markers" d=" M 2377.100000357628 -44 L 5032.700000715256 -44 L 5032.700000715256 -44 A 8 8 0 0 1 5040.700000715256 -36 L 5040.700000715256 4095.90001001358 L 5040.700000715256 4095.90001001358 A 8 8 0 0 1 5032.700000715256 4103.90001001358 L -278.5 4103.90001001358 L -278.5 4103.90001001358 A 8 8 0 0 1 -286.5 4095.90001001358 L -286.5 -36 L -286.5 -36 A 8 8 0 0 1 -278.5 -44 L 2377.100000357628 -44 Z" fill-opacity="1" stroke-opacity="1" stroke-miterlimit="10" stroke-width="2"/><text fill="rgb(0,0,0)" stroke="none" font-family="Avenir, Helvetica, Arial, sans-serif" font-size="32px" font-style="normal" font-weight="bold" text-decoration="normal" x="2377.100000357628" y="31" text-anchor="middle" dominant-baseline="text-after-edge" fill-opacity="1">.</text><path fill="rgb(255,255,255)" stroke="rgb(211,211,211)" paint-order="fill stroke markers" d=" M 2306.0000014305115 157.5 L 2675.5000014305115 157.5 L 2675.5000014305115 157.5 A 8 8 0 0 1 2683.5000014305115 165.5 L 2683.5000014305115 700.5000014305115 L 2683.5000014305115 700.5000014305115 A 8 8 0 0 1 2675.5000014305115 708.5000014305115 L 1936.5000014305115 708.5000014305115 L 1936.5000014305115 708.5000014305115 A 8 8 0 0 1 1928.5000014305115 700.5000014305115 L 1928.5000014305115 165.5 L 1928.5000014305115 165.5 A 8 8 0 0 1 1936.5000014305115 157.5 L 2306.0000014305115 157.5 Z" fill-opacity="1" stroke-opacity="1" stroke-miterlimit="10"/><text fill="rgb(0,0,0)" stroke="none" font-family="Avenir, Helvetica, Arial, sans-serif" font-size="32px" font-style="normal" font-weight="bold" text-decoration="normal" x="2306.0000014305115" y="232.5" text-anchor="middle" dominant-baseline="text-after-edge" fill-opacity="1">unknown file</text><path fill="rgb(255,255,255)" stroke="rgb(211,211,211)" paint-order="fill stroke markers" d=" M 300 157.5 L 669.5 157.5 L 669.5 157.5 A 8 8 0 0 1 677.5 165.5 L 677.5 434.5 L 677.5 434.5 A 8 8 0 0 1 669.5 442.5 L -69.5 442.5 L -69.5 442.5 A 8 8 0 0 1 -77.5 434.5 L -77.5 165.5 L -77.5 165.5 A 8 8 0 0 1 -69.5 157.5 L 300 157.5 Z" fill-opacity="1" stroke-opacity="1" stroke-miterlimit="10"/><text fill="rgb(0,0,0)" stroke="none" font-family="Avenir, Helvetica, Arial, sans-serif" font-size="32px" font-style="normal" font-weight="bold" text-decoration="normal" x="300" y="232.5" text-anchor="middle" dominant-baseline="text-after-edge" fill-opacity="1">outputs.tf</text><path fill="rgb(255,255,255)" stroke="rgb(211,211,211)" paint-order="fill stroke markers" d=" M 1303.0000007152557 157.5 L 1672.5000007152557 157.5 L 1672.5000007152557 157.5 A 8 8 0 0 1 1680.5000007152557 165.5 L 1680.5000007152557 434.5 L 1680.5000007152557 434.5 A 8 8 0 0 1 1672.5000007152557 442.5 L 933.5000007152557 442.5 L 933.5000007152557 442.5 A 8 8 0 0 1 925.5000007152557 434.5 L 925.5000007152557 165.5 L 925.5000007152557 165.5 A 8 8 0 0 1 933.5000007152557 157.5 L 1303.0000007152557 157.5 Z" fill-opacity="1" stroke-opacity="1" stroke-miterlimit="10"/><text fill="rgb(0,0,0)" stroke="none" font-family="Avenir, Helvetica, Arial, sans-serif" font-size="32px" font-style="normal" font-weight="bold" text-decoration="normal" x="1303.0000007152557" y="232.5" text-anchor="middle" dominant-baseline="text-after-edge" fill-opacity="1">variables.tf</text><path fill="rgb(255,255,255)" stroke="rgb(211,211,211)" paint-order="fill stroke markers" d=" M 2377.100000357628 947.5000021457672 L 4831.200000715256 947.5000021457672 L 4831.200000715256 947.5000021457672 A 8 8 0 0 1 4839.200000715256 955.5000021457672 L 4839.200000715256 3894.40001001358 L 4839.200000715256 3894.40001001358 A 8 8 0 0 1 4831.200000715256 3902.40001001358 L -77 3902.40001001358 L -77 3902.40001001358 A 8 8 0 0 1 -85 3894.40001001358 L -85 955.5000021457672 L -85 955.5000021457672 A 8 8 0 0 1 -77 947.5000021457672 L 2377.100000357628 947.5000021457672 Z" fill-opacity="1" stroke-opacity="1" stroke-miterlimit="10"/><text fill="rgb(0,0,0)" stroke="none" font-family="Avenir, Helvetica, Arial, sans-serif" font-size="32px" font-style="normal" font-weight="bold" text-decoration="normal" x="2377.100000357628" y="1022.5000021457672" text-anchor="middle" dominant-baseline="text-after-edge" fill-opacity="1">main.tf</text><path fill="none" stroke="url(#FIdySHmGKseQ)" paint-order="fill stroke markers" d=" M 2143.0000007152557 2457.483339413007 L 2298.600000357628 2457.483339413007 L 2298.600000357628 2424.9500060796736 L 2454.2 2424.9500060796736" stroke-linejoin="round" stroke-miterlimit="10" stroke-width="10"/><path fill="none" stroke="url(#KrNgEHXbekEh)" paint-order="fill stroke markers" d=" M 2143.0000007152557 2457.483339413007 L 2298.600000357628 2457.483339413007 L 2298.600000357628 2424.9500060796736 L 2454.2 2424.9500060796736" stroke-linejoin="round" stroke-miterlimit="10" stroke-width="10"/><path fill="rgb(255,255,255)" stroke="rgb(132,80,186)" paint-order="fill stroke markers" d=" M 1079.5000003576279 1183.6333354791004 L 2130.0000007152557 1183.6333354791004 L 2130.0000007152557 1183.6333354791004 A 8 8 0 0 1 2138.0000007152557 1191.6333354791004 L 2138.0000007152557 3723.3333433469134 L 2138.0000007152557 3723.3333433469134 A 8 8 0 0 1 2130.0000007152557 3731.3333433469134 L 29 3731.3333433469134 L 29 3731.3333433469134 A 8 8 0 0 1 21 3723.3333433469134 L 21 1191.6333354791004 L 21 1191.6333354791004 A 8 8 0 0 1 29 1183.6333354791004 L 1079.5000003576279 1183.6333354791004 Z" fill-opacity="1" stroke-opacity="1" stroke-miterlimit="10" stroke-width="10"/><text fill="rgb(132,80,186)" stroke="none" font-family="Avenir, Helvetica, Arial, sans-serif" font-size="32px" font-style="normal" font-weight="bold" text-decoration="normal" x="1079.5000003576279" y="1243.6333354791004" text-anchor="middle" dominant-baseline="text-after-edge" fill-opacity="1">tfe_workspace</text><path fill="rgb(255,255,255)" stroke="rgb(132,80,186)" paint-order="fill stroke markers" d=" M 3596.2000003576277 1053.500002145767 L 4725.200000715256 1053.500002145767 L 4725.200000715256 1053.500002145767 A 8 8 0 0 1 4733.200000715256 1061.500002145767 L 4733.200000715256 3788.40001001358 L 4733.200000715256 3788.40001001358 A 8 8 0 0 1 4725.200000715256 3796.40001001358 L 2467.2 3796.40001001358 L 2467.2 3796.40001001358 A 8 8 0 0 1 2459.2 3788.40001001358 L 2459.2 1061.500002145767 L 2459.2 1061.500002145767 A 8 8 0 0 1 2467.2 1053.500002145767 L 3596.2000003576277 1053.500002145767 Z" fill-opacity="1" stroke-opacity="1" stroke-miterlimit="10" stroke-width="10"/><text fill="rgb(132,80,186)" stroke="none" font-family="Avenir, Helvetica, Arial, sans-serif" font-size="32px" font-style="normal" font-weight="bold" text-decoration="normal" x="3596.2000003576277" y="1113.500002145767" text-anchor="middle" dominant-baseline="text-after-edge" fill-opacity="1">tfe_organization</text><path fill="rgb(255,255,255)" stroke="rgb(211,211,211)" paint-order="fill stroke markers" d=" M 500 1286.6333354791004 L 869.5 1286.6333354791004 L 869.5 1286.6333354791004 A 8 8 0 0 1 877.5 1294.6333354791004 L 877.5 1563.6333354791004 L 877.5 1563.6333354791004 A 8 8 0 0 1 869.5 1571.6333354791004 L 130.5 1571.6333354791004 L 130.5 1571.6333354791004 A 8 8 0 0 1 122.5 1563.6333354791004 L 122.5 1294.6333354791004 L 122.5 1294.6333354791004 A 8 8 0 0 1 130.5 1286.6333354791004 L 500 1286.6333354791004 Z" fill-opacity="1" stroke-opacity="1" stroke-miterlimit="10"/><text fill="rgb(0,0,0)" stroke="none" font-family="Avenir, Helvetica, Arial, sans-serif" font-size="32px" font-style="normal" font-weight="bold" text-decoration="normal" x="500" y="1361.6333354791004" text-anchor="middle" dominant-baseline="text-after-edge" fill-opacity="1">outputs.tf</text><path fill="rgb(255,255,255)" stroke="rgb(211,211,211)" paint-order="fill stroke markers" d=" M 801.5000003576279 2014.833336194356 L 1472.5000007152557 2014.833336194356 L 1472.5000007152557 2014.833336194356 A 8 8 0 0 1 1480.5000007152557 2022.833336194356 L 1480.5000007152557 3621.8333433469134 L 1480.5000007152557 3621.8333433469134 A 8 8 0 0 1 1472.5000007152557 3629.8333433469134 L 130.5 3629.8333433469134 L 130.5 3629.8333433469134 A 8 8 0 0 1 122.5 3621.8333433469134 L 122.5 2022.833336194356 L 122.5 2022.833336194356 A 8 8 0 0 1 130.5 2014.833336194356 L 801.5000003576279 2014.833336194356 Z" fill-opacity="1" stroke-opacity="1" stroke-miterlimit="10"/><text fill="rgb(0,0,0)" stroke="none" font-family="Avenir, Helvetica, Arial, sans-serif" font-size="32px" font-style="normal" font-weight="bold" text-decoration="normal" x="801.5000003576279" y="2089.833336194356" text-anchor="middle" dominant-baseline="text-after-edge" fill-opacity="1">variables.tf</text><path fill="rgb(255,255,255)" stroke="rgb(211,211,211)" paint-order="fill stroke markers" d=" M 1603.0000007152557 1285.1333354791004 L 2028.5000007152557 1285.1333354791004 L 2028.5000007152557 1285.1333354791004 A 8 8 0 0 1 2036.5000007152557 1293.1333354791004 L 2036.5000007152557 1719.6333354791004 L 2036.5000007152557 1719.6333354791004 A 8 8 0 0 1 2028.5000007152557 1727.6333354791004 L 1177.5000007152557 1727.6333354791004 L 1177.5000007152557 1727.6333354791004 A 8 8 0 0 1 1169.5000007152557 1719.6333354791004 L 1169.5000007152557 1293.1333354791004 L 1169.5000007152557 1293.1333354791004 A 8 8 0 0 1 1177.5000007152557 1285.1333354791004 L 1603.0000007152557 1285.1333354791004 Z" fill-opacity="1" stroke-opacity="1" stroke-miterlimit="10"/><text fill="rgb(0,0,0)" stroke="none" font-family="Avenir, Helvetica, Arial, sans-serif" font-size="32px" font-style="normal" font-weight="bold" text-decoration="normal" x="1603.0000007152557" y="1360.1333354791004" text-anchor="middle" dominant-baseline="text-after-edge" fill-opacity="1">main.tf</text><path fill="rgb(255,255,255)" stroke="rgb(211,211,211)" paint-order="fill stroke markers" d=" M 3095.2 1156.5000021457672 L 3464.7 1156.5000021457672 L 3464.7 1156.5000021457672 A 8 8 0 0 1 3472.7 1164.5000021457672 L 3472.7 1699.5000035762787 L 3472.7 1699.5000035762787 A 8 8 0 0 1 3464.7 1707.5000035762787 L 2725.7 1707.5000035762787 L 2725.7 1707.5000035762787 A 8 8 0 0 1 2717.7 1699.5000035762787 L 2717.7 1164.5000021457672 L 2717.7 1164.5000021457672 A 8 8 0 0 1 2725.7 1156.5000021457672 L 3095.2 1156.5000021457672 Z" fill-opacity="1" stroke-opacity="1" stroke-miterlimit="10"/><text fill="rgb(0,0,0)" stroke="none" font-family="Avenir, Helvetica, Arial, sans-serif" font-size="32px" font-style="normal" font-weight="bold" text-decoration="normal" x="3095.2" y="1231.5000021457672" text-anchor="middle" dominant-baseline="text-after-edge" fill-opacity="1">outputs.tf</text><path fill="rgb(255,255,255)" stroke="rgb(211,211,211)" paint-order="fill stroke markers" d=" M 3095.2 2212.900003576279 L 3621.7 2212.900003576279 L 3621.7 2212.900003576279 A 8 8 0 0 1 3629.7 2220.900003576279 L 3629.7 3686.9000100135804 L 3629.7 3686.9000100135804 A 8 8 0 0 1 3621.7 3694.9000100135804 L 2568.7 3694.9000100135804 L 2568.7 3694.9000100135804 A 8 8 0 0 1 2560.7 3686.9000100135804 L 2560.7 2220.900003576279 L 2560.7 2220.900003576279 A 8 8 0 0 1 2568.7 2212.900003576279 L 3095.2 2212.900003576279 Z" fill-opacity="1" stroke-opacity="1" stroke-miterlimit="10"/><text fill="rgb(0,0,0)" stroke="none" font-family="Avenir, Helvetica, Arial, sans-serif" font-size="32px" font-style="normal" font-weight="bold" text-decoration="normal" x="3095.2" y="2287.900003576279" text-anchor="middle" dominant-baseline="text-after-edge" fill-opacity="1">variables.tf</text><path fill="rgb(255,255,255)" stroke="rgb(211,211,211)" paint-order="fill stroke markers" d=" M 4198.200000715256 1155.0000021457672 L 4623.700000715256 1155.0000021457672 L 4623.700000715256 1155.0000021457672 A 8 8 0 0 1 4631.700000715256 1163.0000021457672 L 4631.700000715256 1917.7000028610228 L 4631.700000715256 1917.7000028610228 A 8 8 0 0 1 4623.700000715256 1925.7000028610228 L 3772.7000007152556 1925.7000028610228 L 3772.7000007152556 1925.7000028610228 A 8 8 0 0 1 3764.7000007152556 1917.7000028610228 L 3764.7000007152556 1163.0000021457672 L 3764.7000007152556 1163.0000021457672 A 8 8 0 0 1 3772.7000007152556 1155.0000021457672 L 4198.200000715256 1155.0000021457672 Z" fill-opacity="1" stroke-opacity="1" stroke-miterlimit="10"/><text fill="rgb(0,0,0)" stroke="none" font-family="Avenir, Helvetica, Arial, sans-serif" font-size="32px" font-style="normal" font-weight="bold" text-decoration="normal" x="4198.200000715256" y="1230.0000021457672" text-anchor="middle" dominant-baseline="text-after-edge" fill-opacity="1">main.tf</text><path fill="rgb(255,255,255)" stroke="rgb(0,0,0)" paint-order="fill stroke markers" d=" M 1603.0000007152557 1434.1333354791004 L 1925.0000007152557 1434.1333354791004 L 1925.0000007152557 1434.1333354791004 A 8 8 0 0 1 1933.0000007152557 1442.1333354791004 L 1933.0000007152557 1616.1333354791004 L 1933.0000007152557 1616.1333354791004 A 8 8 0 0 1 1925.0000007152557 1624.1333354791004 L 1281.0000007152557 1624.1333354791004 L 1281.0000007152557 1624.1333354791004 A 8 8 0 0 1 1273.0000007152557 1616.1333354791004 L 1273.0000007152557 1442.1333354791004 L 1273.0000007152557 1442.1333354791004 A 8 8 0 0 1 1281.0000007152557 1434.1333354791004 L 1603.0000007152557 1434.1333354791004 Z" fill-opacity="1" stroke-opacity="1" stroke-miterlimit="10" stroke-width="5"/><rect fill="rgb(255,255,255)" stroke="none" x="1462.0000007152557" y="1385.1333354791004" width="282" height="96" fill-opacity="1"/><text fill="rgb(0,0,0)" stroke="none" font-family="Avenir, Helvetica, Arial, sans-serif" font-size="32px" font-style="normal" font-weight="bold" text-decoration="normal" x="1603.0000007152557" y="1449.1333354791004" text-anchor="middle" dominant-baseline="text-after-edge" fill-opacity="1">tfe_workspace</text><path fill="rgb(255,255,255)" stroke="rgb(0,0,0)" paint-order="fill stroke markers" d=" M 4198.200000715256 1304.0000021457672 L 4520.200000715256 1304.0000021457672 L 4520.200000715256 1304.0000021457672 A 8 8 0 0 1 4528.200000715256 1312.0000021457672 L 4528.200000715256 1486.0000021457672 L 4528.200000715256 1486.0000021457672 A 8 8 0 0 1 4520.200000715256 1494.0000021457672 L 3876.2000007152556 1494.0000021457672 L 3876.2000007152556 1494.0000021457672 A 8 8 0 0 1 3868.2000007152556 1486.0000021457672 L 3868.2000007152556 1312.0000021457672 L 3868.2000007152556 1312.0000021457672 A 8 8 0 0 1 3876.2000007152556 1304.0000021457672 L 4198.200000715256 1304.0000021457672 Z" fill-opacity="1" stroke-opacity="1" stroke-miterlimit="10" stroke-width="5"/><rect fill="rgb(255,255,255)" stroke="none" x="4043.7000007152556" y="1255.0000021457672" width="309" height="96" fill-opacity="1"/><text fill="rgb(0,0,0)" stroke="none" font-family="Avenir, Helvetica, Arial, sans-serif" font-size="32px" font-style="normal" font-weight="bold" text-decoration="normal" x="4198.200000715256" y="1319.0000021457672" text-anchor="middle" dominant-baseline="text-after-edge" fill-opacity="1">tfe_organization</text><path fill="rgb(255,255,255)" stroke="rgb(0,0,0)" paint-order="fill stroke markers" d=" M 4198.200000715256 1632.200002861023 L 4520.200000715256 1632.200002861023 L 4520.200000715256 1632.200002861023 A 8 8 0 0 1 4528.200000715256 1640.200002861023 L 4528.200000715256 1814.200002861023 L 4528.200000715256 1814.200002861023 A 8 8 0 0 1 4520.200000715256 1822.200002861023 L 3876.2000007152556 1822.200002861023 L 3876.2000007152556 1822.200002861023 A 8 8 0 0 1 3868.2000007152556 1814.200002861023 L 3868.2000007152556 1640.200002861023 L 3868.2000007152556 1640.200002861023 A 8 8 0 0 1 3876.2000007152556 1632.200002861023 L 4198.200000715256 1632.200002861023 Z" fill-opacity="1" stroke-opacity="1" stroke-miterlimit="10" stroke-width="5"/><rect fill="rgb(255,255,255)" stroke="none" x="3992.7000007152556" y="1583.200002861023" width="411" height="96" fill-opacity="1"/><text fill="rgb(0,0,0)" stroke="none" font-family="Avenir, Helvetica, Arial, sans-serif" font-size="32px" font-style="normal" font-weight="bold" text-decoration="normal" x="4198.200000715256" y="1647.200002861023" text-anchor="middle" dominant-baseline="text-after-edge" fill-opacity="1">tfe_organization_token</text><path fill="none" stroke="url(#DCbBvfIDwFFs)" paint-order="fill stroke markers" d=" M 300 341.5 L 300 760.0666677395502 L 1079.5000003576279 760.0666677395502 L 1079.5000003576279 1178.6333354791004" stroke-linejoin="round" stroke-miterlimit="10" stroke-width="10"/><path fill="none" stroke="url(#duIbsNcEsyQu)" paint-order="fill stroke markers" d=" M 300 341.5 L 300 760.0666677395502 L 1079.5000003576279 760.0666677395502 L 1079.5000003576279 1178.6333354791004" stroke-linejoin="round" stroke-miterlimit="10" stroke-width="10"/><path fill="none" stroke="url(#isakDKlbeITG)" paint-order="fill stroke markers" d=" M 1079.5000003576279 1178.6333354791004 L 1079.5000003576279 893.066668454806 L 2306.0000014305115 893.066668454806 L 2306.0000014305115 607.5000014305115" stroke-linejoin="round" stroke-miterlimit="10" stroke-width="10"/><path fill="none" stroke="url(#QKeVFqTXgSKR)" paint-order="fill stroke markers" d=" M 776.5 1429.1333354791004 L 1052.7500003576279 1429.1333354791004 L 1052.7500003576279 1529.1333354791004 L 1329.0000007152557 1529.1333354791004" stroke-linejoin="round" stroke-miterlimit="10" stroke-width="10"/><path fill="none" stroke="url(#wGooMghqQvTM)" paint-order="fill stroke markers" d=" M 1603.0000007152557 1568.1333354791004 L 1603.0000007152557 2440.483339055379 L 1103.0000007152557 2440.483339055379 L 1103.0000007152557 3312.8333426316576" stroke-linejoin="round" stroke-miterlimit="10" stroke-width="10"/><path fill="none" stroke="url(#kufTHzLotadw)" paint-order="fill stroke markers" d=" M 1603.0000007152557 1568.1333354791004 L 1603.0000007152557 2307.4833383401233 L 1103.0000007152557 2307.4833383401233 L 1103.0000007152557 3046.833341201146" stroke-linejoin="round" stroke-miterlimit="10" stroke-width="10"/><path fill="none" stroke="url(#EqnGrIxOewBp)" paint-order="fill stroke markers" d=" M 1603.0000007152557 1568.1333354791004 L 1603.0000007152557 2107.9833372672397 L 500 2107.9833372672397 L 500 2647.833339055379" stroke-linejoin="round" stroke-miterlimit="10" stroke-width="10"/><path fill="none" stroke="url(#ANMBdwrGHTET)" paint-order="fill stroke markers" d=" M 1603.0000007152557 1568.1333354791004 L 1603.0000007152557 2373.983338697751 L 500 2373.983338697751 L 500 3179.833341916402" stroke-linejoin="round" stroke-miterlimit="10" stroke-width="10"/><path fill="none" stroke="url(#DUiMiKdLQRGz)" paint-order="fill stroke markers" d=" M 1603.0000007152557 1568.1333354791004 L 1603.0000007152557 1974.983336551984 L 1103.0000007152557 1974.983336551984 L 1103.0000007152557 2381.8333376248675" stroke-linejoin="round" stroke-miterlimit="10" stroke-width="10"/><path fill="none" stroke="url(#AVWDwLgKozfR)" paint-order="fill stroke markers" d=" M 1603.0000007152557 1568.1333354791004 L 1603.0000007152557 1908.483336194356 L 1103.0000007152557 1908.483336194356 L 1103.0000007152557 2248.8333369096117" stroke-linejoin="round" stroke-miterlimit="10" stroke-width="10"/><path fill="none" stroke="url(#GPpsAfldpehJ)" paint-order="fill stroke markers" d=" M 1603.0000007152557 1568.1333354791004 L 1603.0000007152557 2174.4833376248675 L 1103.0000007152557 2174.4833376248675 L 1103.0000007152557 2780.8333397706347" stroke-linejoin="round" stroke-miterlimit="10" stroke-width="10"/><path fill="none" stroke="url(#BJCCBoEACSNx)" paint-order="fill stroke markers" d=" M 1603.0000007152557 1568.1333354791004 L 1603.0000007152557 1841.9833358367282 L 1103.0000007152557 1841.9833358367282 L 1103.0000007152557 2115.833336194356" stroke-linejoin="round" stroke-miterlimit="10" stroke-width="10"/><path fill="none" stroke="url(#LsrzEOWEXPRM)" paint-order="fill stroke markers" d=" M 1603.0000007152557 1568.1333354791004 L 1603.0000007152557 2506.983339413007 L 1103.0000007152557 2506.983339413007 L 1103.0000007152557 3445.8333433469134" stroke-linejoin="round" stroke-miterlimit="10" stroke-width="10"/><path fill="none" stroke="url(#JlzdnIukNLXZ)" paint-order="fill stroke markers" d=" M 1603.0000007152557 1568.1333354791004 L 1603.0000007152557 1908.483336194356 L 500 1908.483336194356 L 500 2248.8333369096117" stroke-linejoin="round" stroke-miterlimit="10" stroke-width="10"/><path fill="none" stroke="url(#ryzNrsnmTVHr)" paint-order="fill stroke markers" d=" M 1603.0000007152557 1568.1333354791004 L 1603.0000007152557 2506.983339413007 L 500 2506.983339413007 L 500 3445.8333433469134" stroke-linejoin="round" stroke-miterlimit="10" stroke-width="10"/><path fill="none" stroke="url(#POMieDOCLkyG)" paint-order="fill stroke markers" d=" M 1603.0000007152557 1568.1333354791004 L 1603.0000007152557 2440.483339055379 L 500 2440.483339055379 L 500 3312.8333426316576" stroke-linejoin="round" stroke-miterlimit="10" stroke-width="10"/><path fill="none" stroke="url(#XMdzrQJfbVUN)" paint-order="fill stroke markers" d=" M 1603.0000007152557 1568.1333354791004 L 1603.0000007152557 2107.9833372672397 L 1103.0000007152557 2107.9833372672397 L 1103.0000007152557 2647.833339055379" stroke-linejoin="round" stroke-miterlimit="10" stroke-width="10"/><path fill="none" stroke="url(#GZokPUlogOqv)" paint-order="fill stroke markers" d=" M 1603.0000007152557 1568.1333354791004 L 1603.0000007152557 2373.983338697751 L 1103.0000007152557 2373.983338697751 L 1103.0000007152557 3179.833341916402" stroke-linejoin="round" stroke-miterlimit="10" stroke-width="10"/><path fill="none" stroke="url(#zLXThIWqZRrr)" paint-order="fill stroke markers" d=" M 1603.0000007152557 1568.1333354791004 L 1603.0000007152557 2174.4833376248675 L 500 2174.4833376248675 L 500 2780.8333397706347" stroke-linejoin="round" stroke-miterlimit="10" stroke-width="10"/><path fill="none" stroke="url(#otFMFshUqilt)" paint-order="fill stroke markers" d=" M 1603.0000007152557 1568.1333354791004 L 1603.0000007152557 2041.4833369096118 L 1103.0000007152557 2041.4833369096118 L 1103.0000007152557 2514.833338340123" stroke-linejoin="round" stroke-miterlimit="10" stroke-width="10"/><path fill="none" stroke="url(#doOFBNeeKyIo)" paint-order="fill stroke markers" d=" M 1329.0000007152557 1529.1333354791004 L 1052.7500003576279 1529.1333354791004 L 1052.7500003576279 2157.333336194356 L 776.5 2157.333336194356" stroke-linejoin="round" stroke-miterlimit="10" stroke-width="10"/><path fill="none" stroke="url(#KlLUsOcJleTz)" paint-order="fill stroke markers" d=" M 1603.0000007152557 1568.1333354791004 L 1603.0000007152557 2041.4833369096118 L 500 2041.4833369096118 L 500 2514.833338340123" stroke-linejoin="round" stroke-miterlimit="10" stroke-width="10"/><path fill="none" stroke="url(#nNZBZZcshWdA)" paint-order="fill stroke markers" d=" M 3596.2000003576277 1048.500002145767 L 3596.2000003576277 695.0000010728834 L 2306.0000014305115 695.0000010728834 L 2306.0000014305115 341.5" stroke-linejoin="round" stroke-miterlimit="10" stroke-width="10"/><path fill="none" stroke="url(#GaEQeXcIklaF)" paint-order="fill stroke markers" d=" M 3596.2000003576277 1048.500002145767 L 3596.2000003576277 761.5000014305112 L 2306.0000014305115 761.5000014305112 L 2306.0000014305115 474.50000071525574" stroke-linejoin="round" stroke-miterlimit="10" stroke-width="10"/><path fill="none" stroke="url(#UyUMKepMeMRg)" paint-order="fill stroke markers" d=" M 3371.7 1299.0000021457672 L 3647.9500003576277 1299.0000021457672 L 3647.9500003576277 1399.0000021457672 L 3924.2000007152556 1399.0000021457672" stroke-linejoin="round" stroke-miterlimit="10" stroke-width="10"/><path fill="none" stroke="url(#gbdbexrbsins)" paint-order="fill stroke markers" d=" M 3371.7 1565.0000035762787 L 3647.9500003576277 1565.0000035762787 L 3647.9500003576277 1727.200002861023 L 3924.2000007152556 1727.200002861023" stroke-linejoin="round" stroke-miterlimit="10" stroke-width="10"/><path fill="none" stroke="url(#XpZHDLLXmOEO)" paint-order="fill stroke markers" d=" M 4198.200000715256 1438.0000021457672 L 4198.200000715256 2474.4500060796736 L 3095.2 2474.4500060796736 L 3095.2 3510.9000100135804" stroke-linejoin="round" stroke-miterlimit="10" stroke-width="10"/><path fill="none" stroke="url(#lTqDdyNkcsFh)" paint-order="fill stroke markers" d=" M 4198.200000715256 1438.0000021457672 L 4198.200000715256 2075.4500039339064 L 3095.2 2075.4500039339064 L 3095.2 2712.900005722046" stroke-linejoin="round" stroke-miterlimit="10" stroke-width="10"/><path fill="none" stroke="url(#XaegcrHnApyI)" paint-order="fill stroke markers" d=" M 4198.200000715256 1438.0000021457672 L 4198.200000715256 2407.9500057220457 L 3095.2 2407.9500057220457 L 3095.2 3377.9000092983247" stroke-linejoin="round" stroke-miterlimit="10" stroke-width="10"/><path fill="none" stroke="url(#FOOCXTcgndKB)" paint-order="fill stroke markers" d=" M 4198.200000715256 1438.0000021457672 L 4198.200000715256 2208.450004649162 L 3095.2 2208.450004649162 L 3095.2 2978.9000071525575" stroke-linejoin="round" stroke-miterlimit="10" stroke-width="10"/><path fill="none" stroke="url(#CTbGltgKGxTG)" paint-order="fill stroke markers" d=" M 4198.200000715256 1438.0000021457672 L 4198.200000715256 1875.950002861023 L 3095.2 1875.950002861023 L 3095.2 2313.900003576279" stroke-linejoin="round" stroke-miterlimit="10" stroke-width="10"/><path fill="none" stroke="url(#nfIrIDaXNioP)" paint-order="fill stroke markers" d=" M 4198.200000715256 1438.0000021457672 L 4198.200000715256 1942.4500032186509 L 3095.2 1942.4500032186509 L 3095.2 2446.9000042915345" stroke-linejoin="round" stroke-miterlimit="10" stroke-width="10"/><path fill="none" stroke="url(#rzONVNifVSXW)" paint-order="fill stroke markers" d=" M 4198.200000715256 1438.0000021457672 L 4198.200000715256 2008.9500035762787 L 3095.2 2008.9500035762787 L 3095.2 2579.9000050067903" stroke-linejoin="round" stroke-miterlimit="10" stroke-width="10"/><path fill="none" stroke="url(#MaUuJbOrqbHu)" paint-order="fill stroke markers" d=" M 4198.200000715256 1438.0000021457672 L 4198.200000715256 2274.95000500679 L 3095.2 2274.95000500679 L 3095.2 3111.900007867813" stroke-linejoin="round" stroke-miterlimit="10" stroke-width="10"/><path fill="none" stroke="url(#yMAHFaZIlPmF)" paint-order="fill stroke markers" d=" M 4198.200000715256 1688.200002861023 L 4198.200000715256 1563.100002503395 L 4198.200000715256 1563.100002503395 L 4198.200000715256 1438.0000021457672" stroke-linejoin="round" stroke-miterlimit="10" stroke-width="10"/><path fill="none" stroke="url(#IuOTwpisQVvD)" paint-order="fill stroke markers" d=" M 4198.200000715256 1766.200002861023 L 4198.200000715256 2306.0500046491625 L 3095.2 2306.0500046491625 L 3095.2 2845.9000064373017" stroke-linejoin="round" stroke-miterlimit="10" stroke-width="10"/><path fill="rgb(0,0,0)" stroke="rgb(0,0,0)" paint-order="fill stroke markers" d=" M 2306.0000014305115 261 L 2572.0000014305115 261 L 2572.0000014305115 261 A 8 8 0 0 1 2580.0000014305115 269 L 2580.0000014305115 331 L 2580.0000014305115 331 A 8 8 0 0 1 2572.0000014305115 339 L 2040.0000014305115 339 L 2040.0000014305115 339 A 8 8 0 0 1 2032.0000014305115 331 L 2032.0000014305115 269 L 2032.0000014305115 269 A 8 8 0 0 1 2040.0000014305115 261 L 2306.0000014305115 261 Z" fill-opacity="1" stroke-opacity="1" stroke-miterlimit="10" stroke-width="5"/><text fill="rgb(255,255,255)" stroke="none" font-family="Avenir, Helvetica, Arial, sans-serif" font-size="32px" font-style="normal" font-weight="bold" text-decoration="normal" x="2306.0000014305115" y="316" text-anchor="middle" dominant-baseline="text-after-edge" fill-opacity="1">organization_email</text><path fill="rgb(0,0,0)" stroke="rgb(0,0,0)" paint-order="fill stroke markers" d=" M 2306.0000014305115 394.00000071525574 L 2572.0000014305115 394.00000071525574 L 2572.0000014305115 394.00000071525574 A 8 8 0 0 1 2580.0000014305115 402.00000071525574 L 2580.0000014305115 464.00000071525574 L 2580.0000014305115 464.00000071525574 A 8 8 0 0 1 2572.0000014305115 472.00000071525574 L 2040.0000014305115 472.00000071525574 L 2040.0000014305115 472.00000071525574 A 8 8 0 0 1 2032.0000014305115 464.00000071525574 L 2032.0000014305115 402.00000071525574 L 2032.0000014305115 402.00000071525574 A 8 8 0 0 1 2040.0000014305115 394.00000071525574 L 2306.0000014305115 394.00000071525574 Z" fill-opacity="1" stroke-opacity="1" stroke-miterlimit="10" stroke-width="5"/><text fill="rgb(255,255,255)" stroke="none" font-family="Avenir, Helvetica, Arial, sans-serif" font-size="32px" font-style="normal" font-weight="bold" text-decoration="normal" x="2306.0000014305115" y="449.00000071525574" text-anchor="middle" dominant-baseline="text-after-edge" fill-opacity="1">organization_name</text><path fill="rgb(0,0,0)" stroke="rgb(0,0,0)" paint-order="fill stroke markers" d=" M 2306.0000014305115 527.0000014305115 L 2572.0000014305115 527.0000014305115 L 2572.0000014305115 527.0000014305115 A 8 8 0 0 1 2580.0000014305115 535.0000014305115 L 2580.0000014305115 597.0000014305115 L 2580.0000014305115 597.0000014305115 A 8 8 0 0 1 2572.0000014305115 605.0000014305115 L 2040.0000014305115 605.0000014305115 L 2040.0000014305115 605.0000014305115 A 8 8 0 0 1 2032.0000014305115 597.0000014305115 L 2032.0000014305115 535.0000014305115 L 2032.0000014305115 535.0000014305115 A 8 8 0 0 1 2040.0000014305115 527.0000014305115 L 2306.0000014305115 527.0000014305115 Z" fill-opacity="1" stroke-opacity="1" stroke-miterlimit="10" stroke-width="5"/><text fill="rgb(255,255,255)" stroke="none" font-family="Avenir, Helvetica, Arial, sans-serif" font-size="32px" font-style="normal" font-weight="bold" text-decoration="normal" x="2306.0000014305115" y="582.0000014305115" text-anchor="middle" dominant-baseline="text-after-edge" fill-opacity="1">workspace_name</text><path fill="rgb(255,247,224)" stroke="rgb(255,193,7)" paint-order="fill stroke markers" d=" M 300 261 L 566 261 L 566 261 A 8 8 0 0 1 574 269 L 574 331 L 574 331 A 8 8 0 0 1 566 339 L 34 339 L 34 339 A 8 8 0 0 1 26 331 L 26 269 L 26 269 A 8 8 0 0 1 34 261 L 300 261 Z" fill-opacity="1" stroke-opacity="1" stroke-miterlimit="10" stroke-width="5"/><text fill="rgb(0,0,0)" stroke="none" font-family="Avenir, Helvetica, Arial, sans-serif" font-size="32px" font-style="normal" font-weight="bold" text-decoration="normal" x="300" y="316" text-anchor="middle" dominant-baseline="text-after-edge" fill-opacity="1">workspace_id</text><path fill="rgb(225,240,255)" stroke="rgb(29,122,218)" paint-order="fill stroke markers" d=" M 1303.0000007152557 261 L 1569.0000007152557 261 L 1569.0000007152557 261 A 8 8 0 0 1 1577.0000007152557 269 L 1577.0000007152557 331 L 1577.0000007152557 331 A 8 8 0 0 1 1569.0000007152557 339 L 1037.0000007152557 339 L 1037.0000007152557 339 A 8 8 0 0 1 1029.0000007152557 331 L 1029.0000007152557 269 L 1029.0000007152557 269 A 8 8 0 0 1 1037.0000007152557 261 L 1303.0000007152557 261 Z" fill-opacity="1" stroke-opacity="1" stroke-miterlimit="10" stroke-width="5"/><text fill="rgb(0,0,0)" stroke="none" font-family="Avenir, Helvetica, Arial, sans-serif" font-size="32px" font-style="normal" font-weight="bold" text-decoration="normal" x="1303.0000007152557" y="316" text-anchor="middle" dominant-baseline="text-after-edge" fill-opacity="1">token</text><path fill="rgb(255,247,224)" stroke="rgb(255,193,7)" paint-order="fill stroke markers" d=" M 500 1390.1333354791004 L 766 1390.1333354791004 L 766 1390.1333354791004 A 8 8 0 0 1 774 1398.1333354791004 L 774 1460.1333354791004 L 774 1460.1333354791004 A 8 8 0 0 1 766 1468.1333354791004 L 234 1468.1333354791004 L 234 1468.1333354791004 A 8 8 0 0 1 226 1460.1333354791004 L 226 1398.1333354791004 L 226 1398.1333354791004 A 8 8 0 0 1 234 1390.1333354791004 L 500 1390.1333354791004 Z" fill-opacity="1" stroke-opacity="1" stroke-miterlimit="10" stroke-width="5"/><text fill="rgb(0,0,0)" stroke="none" font-family="Avenir, Helvetica, Arial, sans-serif" font-size="32px" font-style="normal" font-weight="bold" text-decoration="normal" x="500" y="1445.1333354791004" text-anchor="middle" dominant-baseline="text-after-edge" fill-opacity="1">id</text><path fill="rgb(225,240,255)" stroke="rgb(29,122,218)" paint-order="fill stroke markers" d=" M 500 2118.333336194356 L 766 2118.333336194356 L 766 2118.333336194356 A 8 8 0 0 1 774 2126.333336194356 L 774 2188.333336194356 L 774 2188.333336194356 A 8 8 0 0 1 766 2196.333336194356 L 234 2196.333336194356 L 234 2196.333336194356 A 8 8 0 0 1 226 2188.333336194356 L 226 2126.333336194356 L 226 2126.333336194356 A 8 8 0 0 1 234 2118.333336194356 L 500 2118.333336194356 Z" fill-opacity="1" stroke-opacity="1" stroke-miterlimit="10" stroke-width="5"/><text fill="rgb(0,0,0)" stroke="none" font-family="Avenir, Helvetica, Arial, sans-serif" font-size="32px" font-style="normal" font-weight="bold" text-decoration="normal" x="500" y="2173.333336194356" text-anchor="middle" dominant-baseline="text-after-edge" fill-opacity="1">agent_pool_id</text><path fill="rgb(225,240,255)" stroke="rgb(29,122,218)" paint-order="fill stroke markers" d=" M 1103.0000007152557 2118.333336194356 L 1369.0000007152557 2118.333336194356 L 1369.0000007152557 2118.333336194356 A 8 8 0 0 1 1377.0000007152557 2126.333336194356 L 1377.0000007152557 2188.333336194356 L 1377.0000007152557 2188.333336194356 A 8 8 0 0 1 1369.0000007152557 2196.333336194356 L 837.0000007152557 2196.333336194356 L 837.0000007152557 2196.333336194356 A 8 8 0 0 1 829.0000007152557 2188.333336194356 L 829.0000007152557 2126.333336194356 L 829.0000007152557 2126.333336194356 A 8 8 0 0 1 837.0000007152557 2118.333336194356 L 1103.0000007152557 2118.333336194356 Z" fill-opacity="1" stroke-opacity="1" stroke-miterlimit="10" stroke-width="5"/><text fill="rgb(0,0,0)" stroke="none" font-family="Avenir, Helvetica, Arial, sans-serif" font-size="32px" font-style="normal" font-weight="bold" text-decoration="normal" x="1103.0000007152557" y="2173.333336194356" text-anchor="middle" dominant-baseline="text-after-edge" fill-opacity="1">file_triggers_enabled</text><path fill="rgb(225,240,255)" stroke="rgb(29,122,218)" paint-order="fill stroke markers" d=" M 500 2251.3333369096117 L 766 2251.3333369096117 L 766 2251.3333369096117 A 8 8 0 0 1 774 2259.3333369096117 L 774 2321.3333369096117 L 774 2321.3333369096117 A 8 8 0 0 1 766 2329.3333369096117 L 234 2329.3333369096117 L 234 2329.3333369096117 A 8 8 0 0 1 226 2321.3333369096117 L 226 2259.3333369096117 L 226 2259.3333369096117 A 8 8 0 0 1 234 2251.3333369096117 L 500 2251.3333369096117 Z" fill-opacity="1" stroke-opacity="1" stroke-miterlimit="10" stroke-width="5"/><text fill="rgb(0,0,0)" stroke="none" font-family="Avenir, Helvetica, Arial, sans-serif" font-size="32px" font-style="normal" font-weight="bold" text-decoration="normal" x="500" y="2306.3333369096117" text-anchor="middle" dominant-baseline="text-after-edge" fill-opacity="1">working_directory</text><path fill="rgb(225,240,255)" stroke="rgb(29,122,218)" paint-order="fill stroke markers" d=" M 1103.0000007152557 2251.3333369096117 L 1369.0000007152557 2251.3333369096117 L 1369.0000007152557 2251.3333369096117 A 8 8 0 0 1 1377.0000007152557 2259.3333369096117 L 1377.0000007152557 2321.3333369096117 L 1377.0000007152557 2321.3333369096117 A 8 8 0 0 1 1369.0000007152557 2329.3333369096117 L 837.0000007152557 2329.3333369096117 L 837.0000007152557 2329.3333369096117 A 8 8 0 0 1 829.0000007152557 2321.3333369096117 L 829.0000007152557 2259.3333369096117 L 829.0000007152557 2259.3333369096117 A 8 8 0 0 1 837.0000007152557 2251.3333369096117 L 1103.0000007152557 2251.3333369096117 Z" fill-opacity="1" stroke-opacity="1" stroke-miterlimit="10" stroke-width="5"/><text fill="rgb(0,0,0)" stroke="none" font-family="Avenir, Helvetica, Arial, sans-serif" font-size="32px" font-style="normal" font-weight="bold" text-decoration="normal" x="1103.0000007152557" y="2306.3333369096117" text-anchor="middle" dominant-baseline="text-after-edge" fill-opacity="1">queue_all_runs</text><path fill="rgb(225,240,255)" stroke="rgb(29,122,218)" paint-order="fill stroke markers" d=" M 500 2384.3333376248675 L 766 2384.3333376248675 L 766 2384.3333376248675 A 8 8 0 0 1 774 2392.3333376248675 L 774 2454.3333376248675 L 774 2454.3333376248675 A 8 8 0 0 1 766 2462.3333376248675 L 234 2462.3333376248675 L 234 2462.3333376248675 A 8 8 0 0 1 226 2454.3333376248675 L 226 2392.3333376248675 L 226 2392.3333376248675 A 8 8 0 0 1 234 2384.3333376248675 L 500 2384.3333376248675 Z" fill-opacity="1" stroke-opacity="1" stroke-miterlimit="10" stroke-width="5"/><text fill="rgb(0,0,0)" stroke="none" font-family="Avenir, Helvetica, Arial, sans-serif" font-size="32px" font-style="normal" font-weight="bold" text-decoration="normal" x="500" y="2439.3333376248675" text-anchor="middle" dominant-baseline="text-after-edge" fill-opacity="1">branch</text><path fill="rgb(225,240,255)" stroke="rgb(29,122,218)" paint-order="fill stroke markers" d=" M 1103.0000007152557 2384.3333376248675 L 1369.0000007152557 2384.3333376248675 L 1369.0000007152557 2384.3333376248675 A 8 8 0 0 1 1377.0000007152557 2392.3333376248675 L 1377.0000007152557 2454.3333376248675 L 1377.0000007152557 2454.3333376248675 A 8 8 0 0 1 1369.0000007152557 2462.3333376248675 L 837.0000007152557 2462.3333376248675 L 837.0000007152557 2462.3333376248675 A 8 8 0 0 1 829.0000007152557 2454.3333376248675 L 829.0000007152557 2392.3333376248675 L 829.0000007152557 2392.3333376248675 A 8 8 0 0 1 837.0000007152557 2384.3333376248675 L 1103.0000007152557 2384.3333376248675 Z" fill-opacity="1" stroke-opacity="1" stroke-miterlimit="10" stroke-width="5"/><text fill="rgb(0,0,0)" stroke="none" font-family="Avenir, Helvetica, Arial, sans-serif" font-size="32px" font-style="normal" font-weight="bold" text-decoration="normal" x="1103.0000007152557" y="2439.3333376248675" text-anchor="middle" dominant-baseline="text-after-edge" fill-opacity="1">name</text><path fill="rgb(225,240,255)" stroke="rgb(29,122,218)" paint-order="fill stroke markers" d=" M 500 2517.333338340123 L 766 2517.333338340123 L 766 2517.333338340123 A 8 8 0 0 1 774 2525.333338340123 L 774 2587.333338340123 L 774 2587.333338340123 A 8 8 0 0 1 766 2595.333338340123 L 234 2595.333338340123 L 234 2595.333338340123 A 8 8 0 0 1 226 2587.333338340123 L 226 2525.333338340123 L 226 2525.333338340123 A 8 8 0 0 1 234 2517.333338340123 L 500 2517.333338340123 Z" fill-opacity="1" stroke-opacity="1" stroke-miterlimit="10" stroke-width="5"/><text fill="rgb(0,0,0)" stroke="none" font-family="Avenir, Helvetica, Arial, sans-serif" font-size="32px" font-style="normal" font-weight="bold" text-decoration="normal" x="500" y="2572.333338340123" text-anchor="middle" dominant-baseline="text-after-edge" fill-opacity="1">execution_mode</text><path fill="rgb(225,240,255)" stroke="rgb(29,122,218)" paint-order="fill stroke markers" d=" M 1103.0000007152557 2517.333338340123 L 1369.0000007152557 2517.333338340123 L 1369.0000007152557 2517.333338340123 A 8 8 0 0 1 1377.0000007152557 2525.333338340123 L 1377.0000007152557 2587.333338340123 L 1377.0000007152557 2587.333338340123 A 8 8 0 0 1 1369.0000007152557 2595.333338340123 L 837.0000007152557 2595.333338340123 L 837.0000007152557 2595.333338340123 A 8 8 0 0 1 829.0000007152557 2587.333338340123 L 829.0000007152557 2525.333338340123 L 829.0000007152557 2525.333338340123 A 8 8 0 0 1 837.0000007152557 2517.333338340123 L 1103.0000007152557 2517.333338340123 Z" fill-opacity="1" stroke-opacity="1" stroke-miterlimit="10" stroke-width="5"/><text fill="rgb(0,0,0)" stroke="none" font-family="Avenir, Helvetica, Arial, sans-serif" font-size="32px" font-style="normal" font-weight="bold" text-decoration="normal" x="1103.0000007152557" y="2572.333338340123" text-anchor="middle" dominant-baseline="text-after-edge" fill-opacity="1">structured_run_output_enabled</text><path fill="rgb(225,240,255)" stroke="rgb(29,122,218)" paint-order="fill stroke markers" d=" M 500 2650.333339055379 L 766 2650.333339055379 L 766 2650.333339055379 A 8 8 0 0 1 774 2658.333339055379 L 774 2720.333339055379 L 774 2720.333339055379 A 8 8 0 0 1 766 2728.333339055379 L 234 2728.333339055379 L 234 2728.333339055379 A 8 8 0 0 1 226 2720.333339055379 L 226 2658.333339055379 L 226 2658.333339055379 A 8 8 0 0 1 234 2650.333339055379 L 500 2650.333339055379 Z" fill-opacity="1" stroke-opacity="1" stroke-miterlimit="10" stroke-width="5"/><text fill="rgb(0,0,0)" stroke="none" font-family="Avenir, Helvetica, Arial, sans-serif" font-size="32px" font-style="normal" font-weight="bold" text-decoration="normal" x="500" y="2705.333339055379" text-anchor="middle" dominant-baseline="text-after-edge" fill-opacity="1">auto_apply</text><path fill="rgb(225,240,255)" stroke="rgb(29,122,218)" paint-order="fill stroke markers" d=" M 1103.0000007152557 2650.333339055379 L 1369.0000007152557 2650.333339055379 L 1369.0000007152557 2650.333339055379 A 8 8 0 0 1 1377.0000007152557 2658.333339055379 L 1377.0000007152557 2720.333339055379 L 1377.0000007152557 2720.333339055379 A 8 8 0 0 1 1369.0000007152557 2728.333339055379 L 837.0000007152557 2728.333339055379 L 837.0000007152557 2728.333339055379 A 8 8 0 0 1 829.0000007152557 2720.333339055379 L 829.0000007152557 2658.333339055379 L 829.0000007152557 2658.333339055379 A 8 8 0 0 1 837.0000007152557 2650.333339055379 L 1103.0000007152557 2650.333339055379 Z" fill-opacity="1" stroke-opacity="1" stroke-miterlimit="10" stroke-width="5"/><text fill="rgb(0,0,0)" stroke="none" font-family="Avenir, Helvetica, Arial, sans-serif" font-size="32px" font-style="normal" font-weight="bold" text-decoration="normal" x="1103.0000007152557" y="2705.333339055379" text-anchor="middle" dominant-baseline="text-after-edge" fill-opacity="1">global_remote_state</text><path fill="rgb(225,240,255)" stroke="rgb(29,122,218)" paint-order="fill stroke markers" d=" M 500 2783.3333397706347 L 766 2783.3333397706347 L 766 2783.3333397706347 A 8 8 0 0 1 774 2791.3333397706347 L 774 2853.3333397706347 L 774 2853.3333397706347 A 8 8 0 0 1 766 2861.3333397706347 L 234 2861.3333397706347 L 234 2861.3333397706347 A 8 8 0 0 1 226 2853.3333397706347 L 226 2791.3333397706347 L 226 2791.3333397706347 A 8 8 0 0 1 234 2783.3333397706347 L 500 2783.3333397706347 Z" fill-opacity="1" stroke-opacity="1" stroke-miterlimit="10" stroke-width="5"/><text fill="rgb(0,0,0)" stroke="none" font-family="Avenir, Helvetica, Arial, sans-serif" font-size="32px" font-style="normal" font-weight="bold" text-decoration="normal" x="500" y="2838.3333397706347" text-anchor="middle" dominant-baseline="text-after-edge" fill-opacity="1">ssh_key_id</text><path fill="rgb(225,240,255)" stroke="rgb(29,122,218)" paint-order="fill stroke markers" d=" M 1103.0000007152557 2783.3333397706347 L 1369.0000007152557 2783.3333397706347 L 1369.0000007152557 2783.3333397706347 A 8 8 0 0 1 1377.0000007152557 2791.3333397706347 L 1377.0000007152557 2853.3333397706347 L 1377.0000007152557 2853.3333397706347 A 8 8 0 0 1 1369.0000007152557 2861.3333397706347 L 837.0000007152557 2861.3333397706347 L 837.0000007152557 2861.3333397706347 A 8 8 0 0 1 829.0000007152557 2853.3333397706347 L 829.0000007152557 2791.3333397706347 L 829.0000007152557 2791.3333397706347 A 8 8 0 0 1 837.0000007152557 2783.3333397706347 L 1103.0000007152557 2783.3333397706347 Z" fill-opacity="1" stroke-opacity="1" stroke-miterlimit="10" stroke-width="5"/><text fill="rgb(0,0,0)" stroke="none" font-family="Avenir, Helvetica, Arial, sans-serif" font-size="32px" font-style="normal" font-weight="bold" text-decoration="normal" x="1103.0000007152557" y="2838.3333397706347" text-anchor="middle" dominant-baseline="text-after-edge" fill-opacity="1">allow_destroy_plan</text><path fill="rgb(225,240,255)" stroke="rgb(29,122,218)" paint-order="fill stroke markers" d=" M 500 2916.3333404858904 L 766 2916.3333404858904 L 766 2916.3333404858904 A 8 8 0 0 1 774 2924.3333404858904 L 774 2986.3333404858904 L 774 2986.3333404858904 A 8 8 0 0 1 766 2994.3333404858904 L 234 2994.3333404858904 L 234 2994.3333404858904 A 8 8 0 0 1 226 2986.3333404858904 L 226 2924.3333404858904 L 226 2924.3333404858904 A 8 8 0 0 1 234 2916.3333404858904 L 500 2916.3333404858904 Z" fill-opacity="1" stroke-opacity="1" stroke-miterlimit="10" stroke-width="5"/><text fill="rgb(0,0,0)" stroke="none" font-family="Avenir, Helvetica, Arial, sans-serif" font-size="32px" font-style="normal" font-weight="bold" text-decoration="normal" x="500" y="2971.3333404858904" text-anchor="middle" dominant-baseline="text-after-edge" fill-opacity="1">identifier</text><path fill="rgb(225,240,255)" stroke="rgb(29,122,218)" paint-order="fill stroke markers" d=" M 1103.0000007152557 2916.3333404858904 L 1369.0000007152557 2916.3333404858904 L 1369.0000007152557 2916.3333404858904 A 8 8 0 0 1 1377.0000007152557 2924.3333404858904 L 1377.0000007152557 2986.3333404858904 L 1377.0000007152557 2986.3333404858904 A 8 8 0 0 1 1369.0000007152557 2994.3333404858904 L 837.0000007152557 2994.3333404858904 L 837.0000007152557 2994.3333404858904 A 8 8 0 0 1 829.0000007152557 2986.3333404858904 L 829.0000007152557 2924.3333404858904 L 829.0000007152557 2924.3333404858904 A 8 8 0 0 1 837.0000007152557 2916.3333404858904 L 1103.0000007152557 2916.3333404858904 Z" fill-opacity="1" stroke-opacity="1" stroke-miterlimit="10" stroke-width="5"/><text fill="rgb(0,0,0)" stroke="none" font-family="Avenir, Helvetica, Arial, sans-serif" font-size="32px" font-style="normal" font-weight="bold" text-decoration="normal" x="1103.0000007152557" y="2971.3333404858904" text-anchor="middle" dominant-baseline="text-after-edge" fill-opacity="1">ingress_submodules</text><path fill="rgb(225,240,255)" stroke="rgb(29,122,218)" paint-order="fill stroke markers" d=" M 500 3049.333341201146 L 766 3049.333341201146 L 766 3049.333341201146 A 8 8 0 0 1 774 3057.333341201146 L 774 3119.333341201146 L 774 3119.333341201146 A 8 8 0 0 1 766 3127.333341201146 L 234 3127.333341201146 L 234 3127.333341201146 A 8 8 0 0 1 226 3119.333341201146 L 226 3057.333341201146 L 226 3057.333341201146 A 8 8 0 0 1 234 3049.333341201146 L 500 3049.333341201146 Z" fill-opacity="1" stroke-opacity="1" stroke-miterlimit="10" stroke-width="5"/><text fill="rgb(0,0,0)" stroke="none" font-family="Avenir, Helvetica, Arial, sans-serif" font-size="32px" font-style="normal" font-weight="bold" text-decoration="normal" x="500" y="3104.333341201146" text-anchor="middle" dominant-baseline="text-after-edge" fill-opacity="1">oauth_token_id</text><path fill="rgb(225,240,255)" stroke="rgb(29,122,218)" paint-order="fill stroke markers" d=" M 1103.0000007152557 3049.333341201146 L 1369.0000007152557 3049.333341201146 L 1369.0000007152557 3049.333341201146 A 8 8 0 0 1 1377.0000007152557 3057.333341201146 L 1377.0000007152557 3119.333341201146 L 1377.0000007152557 3119.333341201146 A 8 8 0 0 1 1369.0000007152557 3127.333341201146 L 837.0000007152557 3127.333341201146 L 837.0000007152557 3127.333341201146 A 8 8 0 0 1 829.0000007152557 3119.333341201146 L 829.0000007152557 3057.333341201146 L 829.0000007152557 3057.333341201146 A 8 8 0 0 1 837.0000007152557 3049.333341201146 L 1103.0000007152557 3049.333341201146 Z" fill-opacity="1" stroke-opacity="1" stroke-miterlimit="10" stroke-width="5"/><text fill="rgb(0,0,0)" stroke="none" font-family="Avenir, Helvetica, Arial, sans-serif" font-size="32px" font-style="normal" font-weight="bold" text-decoration="normal" x="1103.0000007152557" y="3104.333341201146" text-anchor="middle" dominant-baseline="text-after-edge" fill-opacity="1">terraform_version</text><path fill="rgb(225,240,255)" stroke="rgb(29,122,218)" paint-order="fill stroke markers" d=" M 500 3182.333341916402 L 766 3182.333341916402 L 766 3182.333341916402 A 8 8 0 0 1 774 3190.333341916402 L 774 3252.333341916402 L 774 3252.333341916402 A 8 8 0 0 1 766 3260.333341916402 L 234 3260.333341916402 L 234 3260.333341916402 A 8 8 0 0 1 226 3252.333341916402 L 226 3190.333341916402 L 226 3190.333341916402 A 8 8 0 0 1 234 3182.333341916402 L 500 3182.333341916402 Z" fill-opacity="1" stroke-opacity="1" stroke-miterlimit="10" stroke-width="5"/><text fill="rgb(0,0,0)" stroke="none" font-family="Avenir, Helvetica, Arial, sans-serif" font-size="32px" font-style="normal" font-weight="bold" text-decoration="normal" x="500" y="3237.333341916402" text-anchor="middle" dominant-baseline="text-after-edge" fill-opacity="1">description</text><path fill="rgb(225,240,255)" stroke="rgb(29,122,218)" paint-order="fill stroke markers" d=" M 1103.0000007152557 3182.333341916402 L 1369.0000007152557 3182.333341916402 L 1369.0000007152557 3182.333341916402 A 8 8 0 0 1 1377.0000007152557 3190.333341916402 L 1377.0000007152557 3252.333341916402 L 1377.0000007152557 3252.333341916402 A 8 8 0 0 1 1369.0000007152557 3260.333341916402 L 837.0000007152557 3260.333341916402 L 837.0000007152557 3260.333341916402 A 8 8 0 0 1 829.0000007152557 3252.333341916402 L 829.0000007152557 3190.333341916402 L 829.0000007152557 3190.333341916402 A 8 8 0 0 1 837.0000007152557 3182.333341916402 L 1103.0000007152557 3182.333341916402 Z" fill-opacity="1" stroke-opacity="1" stroke-miterlimit="10" stroke-width="5"/><text fill="rgb(0,0,0)" stroke="none" font-family="Avenir, Helvetica, Arial, sans-serif" font-size="32px" font-style="normal" font-weight="bold" text-decoration="normal" x="1103.0000007152557" y="3237.333341916402" text-anchor="middle" dominant-baseline="text-after-edge" fill-opacity="1">organization</text><path fill="rgb(225,240,255)" stroke="rgb(29,122,218)" paint-order="fill stroke markers" d=" M 500 3315.3333426316576 L 766 3315.3333426316576 L 766 3315.3333426316576 A 8 8 0 0 1 774 3323.3333426316576 L 774 3385.3333426316576 L 774 3385.3333426316576 A 8 8 0 0 1 766 3393.3333426316576 L 234 3393.3333426316576 L 234 3393.3333426316576 A 8 8 0 0 1 226 3385.3333426316576 L 226 3323.3333426316576 L 226 3323.3333426316576 A 8 8 0 0 1 234 3315.3333426316576 L 500 3315.3333426316576 Z" fill-opacity="1" stroke-opacity="1" stroke-miterlimit="10" stroke-width="5"/><text fill="rgb(0,0,0)" stroke="none" font-family="Avenir, Helvetica, Arial, sans-serif" font-size="32px" font-style="normal" font-weight="bold" text-decoration="normal" x="500" y="3370.3333426316576" text-anchor="middle" dominant-baseline="text-after-edge" fill-opacity="1">tag_names</text><path fill="rgb(225,240,255)" stroke="rgb(29,122,218)" paint-order="fill stroke markers" d=" M 1103.0000007152557 3315.3333426316576 L 1369.0000007152557 3315.3333426316576 L 1369.0000007152557 3315.3333426316576 A 8 8 0 0 1 1377.0000007152557 3323.3333426316576 L 1377.0000007152557 3385.3333426316576 L 1377.0000007152557 3385.3333426316576 A 8 8 0 0 1 1369.0000007152557 3393.3333426316576 L 837.0000007152557 3393.3333426316576 L 837.0000007152557 3393.3333426316576 A 8 8 0 0 1 829.0000007152557 3385.3333426316576 L 829.0000007152557 3323.3333426316576 L 829.0000007152557 3323.3333426316576 A 8 8 0 0 1 837.0000007152557 3315.3333426316576 L 1103.0000007152557 3315.3333426316576 Z" fill-opacity="1" stroke-opacity="1" stroke-miterlimit="10" stroke-width="5"/><text fill="rgb(0,0,0)" stroke="none" font-family="Avenir, Helvetica, Arial, sans-serif" font-size="32px" font-style="normal" font-weight="bold" text-decoration="normal" x="1103.0000007152557" y="3370.3333426316576" text-anchor="middle" dominant-baseline="text-after-edge" fill-opacity="1">remote_state_consumer_ids</text><path fill="rgb(225,240,255)" stroke="rgb(29,122,218)" paint-order="fill stroke markers" d=" M 500 3448.3333433469134 L 766 3448.3333433469134 L 766 3448.3333433469134 A 8 8 0 0 1 774 3456.3333433469134 L 774 3518.3333433469134 L 774 3518.3333433469134 A 8 8 0 0 1 766 3526.3333433469134 L 234 3526.3333433469134 L 234 3526.3333433469134 A 8 8 0 0 1 226 3518.3333433469134 L 226 3456.3333433469134 L 226 3456.3333433469134 A 8 8 0 0 1 234 3448.3333433469134 L 500 3448.3333433469134 Z" fill-opacity="1" stroke-opacity="1" stroke-miterlimit="10" stroke-width="5"/><text fill="rgb(0,0,0)" stroke="none" font-family="Avenir, Helvetica, Arial, sans-serif" font-size="32px" font-style="normal" font-weight="bold" text-decoration="normal" x="500" y="3503.3333433469134" text-anchor="middle" dominant-baseline="text-after-edge" fill-opacity="1">speculative_enabled</text><path fill="rgb(225,240,255)" stroke="rgb(29,122,218)" paint-order="fill stroke markers" d=" M 1103.0000007152557 3448.3333433469134 L 1369.0000007152557 3448.3333433469134 L 1369.0000007152557 3448.3333433469134 A 8 8 0 0 1 1377.0000007152557 3456.3333433469134 L 1377.0000007152557 3518.3333433469134 L 1377.0000007152557 3518.3333433469134 A 8 8 0 0 1 1369.0000007152557 3526.3333433469134 L 837.0000007152557 3526.3333433469134 L 837.0000007152557 3526.3333433469134 A 8 8 0 0 1 829.0000007152557 3518.3333433469134 L 829.0000007152557 3456.3333433469134 L 829.0000007152557 3456.3333433469134 A 8 8 0 0 1 837.0000007152557 3448.3333433469134 L 1103.0000007152557 3448.3333433469134 Z" fill-opacity="1" stroke-opacity="1" stroke-miterlimit="10" stroke-width="5"/><text fill="rgb(0,0,0)" stroke="none" font-family="Avenir, Helvetica, Arial, sans-serif" font-size="32px" font-style="normal" font-weight="bold" text-decoration="normal" x="1103.0000007152557" y="3503.3333433469134" text-anchor="middle" dominant-baseline="text-after-edge" fill-opacity="1">trigger_prefixes</text><path fill="rgb(40,167,69)" stroke="none" paint-order="stroke fill markers" d=" M 1603.0000007152557 1490.1333354791004 L 1869.0000007152557 1490.1333354791004 L 1869.0000007152557 1490.1333354791004 A 8 8 0 0 1 1877.0000007152557 1498.1333354791004 L 1877.0000007152557 1560.1333354791004 L 1877.0000007152557 1560.1333354791004 A 8 8 0 0 1 1869.0000007152557 1568.1333354791004 L 1337.0000007152557 1568.1333354791004 L 1337.0000007152557 1568.1333354791004 A 8 8 0 0 1 1329.0000007152557 1560.1333354791004 L 1329.0000007152557 1498.1333354791004 L 1329.0000007152557 1498.1333354791004 A 8 8 0 0 1 1337.0000007152557 1490.1333354791004 L 1603.0000007152557 1490.1333354791004 Z" fill-opacity="1"/><text fill="rgb(255,255,255)" stroke="none" font-family="Avenir, Helvetica, Arial, sans-serif" font-size="32px" font-style="normal" font-weight="bold" text-decoration="normal" x="1603.0000007152557" y="1545.1333354791004" text-anchor="middle" dominant-baseline="text-after-edge" fill-opacity="1">default</text><path fill="rgb(255,247,224)" stroke="rgb(255,193,7)" paint-order="fill stroke markers" d=" M 3095.2 1260.0000021457672 L 3361.2 1260.0000021457672 L 3361.2 1260.0000021457672 A 8 8 0 0 1 3369.2 1268.0000021457672 L 3369.2 1330.0000021457672 L 3369.2 1330.0000021457672 A 8 8 0 0 1 3361.2 1338.0000021457672 L 2829.2 1338.0000021457672 L 2829.2 1338.0000021457672 A 8 8 0 0 1 2821.2 1330.0000021457672 L 2821.2 1268.0000021457672 L 2821.2 1268.0000021457672 A 8 8 0 0 1 2829.2 1260.0000021457672 L 3095.2 1260.0000021457672 Z" fill-opacity="1" stroke-opacity="1" stroke-miterlimit="10" stroke-width="5"/><text fill="rgb(0,0,0)" stroke="none" font-family="Avenir, Helvetica, Arial, sans-serif" font-size="32px" font-style="normal" font-weight="bold" text-decoration="normal" x="3095.2" y="1315.0000021457672" text-anchor="middle" dominant-baseline="text-after-edge" fill-opacity="1">name</text><path fill="rgb(255,247,224)" stroke="rgb(255,193,7)" paint-order="fill stroke markers" d=" M 3095.2 1393.000002861023 L 3361.2 1393.000002861023 L 3361.2 1393.000002861023 A 8 8 0 0 1 3369.2 1401.000002861023 L 3369.2 1463.000002861023 L 3369.2 1463.000002861023 A 8 8 0 0 1 3361.2 1471.000002861023 L 2829.2 1471.000002861023 L 2829.2 1471.000002861023 A 8 8 0 0 1 2821.2 1463.000002861023 L 2821.2 1401.000002861023 L 2821.2 1401.000002861023 A 8 8 0 0 1 2829.2 1393.000002861023 L 3095.2 1393.000002861023 Z" fill-opacity="1" stroke-opacity="1" stroke-miterlimit="10" stroke-width="5"/><text fill="rgb(0,0,0)" stroke="none" font-family="Avenir, Helvetica, Arial, sans-serif" font-size="32px" font-style="normal" font-weight="bold" text-decoration="normal" x="3095.2" y="1448.000002861023" text-anchor="middle" dominant-baseline="text-after-edge" fill-opacity="1">id</text><path fill="rgb(255,247,224)" stroke="rgb(255,193,7)" paint-order="fill stroke markers" d=" M 3095.2 1526.0000035762787 L 3361.2 1526.0000035762787 L 3361.2 1526.0000035762787 A 8 8 0 0 1 3369.2 1534.0000035762787 L 3369.2 1596.0000035762787 L 3369.2 1596.0000035762787 A 8 8 0 0 1 3361.2 1604.0000035762787 L 2829.2 1604.0000035762787 L 2829.2 1604.0000035762787 A 8 8 0 0 1 2821.2 1596.0000035762787 L 2821.2 1534.0000035762787 L 2821.2 1534.0000035762787 A 8 8 0 0 1 2829.2 1526.0000035762787 L 3095.2 1526.0000035762787 Z" fill-opacity="1" stroke-opacity="1" stroke-miterlimit="10" stroke-width="5"/><text fill="rgb(0,0,0)" stroke="none" font-family="Avenir, Helvetica, Arial, sans-serif" font-size="32px" font-style="normal" font-weight="bold" text-decoration="normal" x="3095.2" y="1581.0000035762787" text-anchor="middle" dominant-baseline="text-after-edge" fill-opacity="1">token</text><path fill="rgb(225,240,255)" stroke="rgb(29,122,218)" paint-order="fill stroke markers" d=" M 3095.2 2316.400003576279 L 3361.2 2316.400003576279 L 3361.2 2316.400003576279 A 8 8 0 0 1 3369.2 2324.400003576279 L 3369.2 2386.400003576279 L 3369.2 2386.400003576279 A 8 8 0 0 1 3361.2 2394.400003576279 L 2829.2 2394.400003576279 L 2829.2 2394.400003576279 A 8 8 0 0 1 2821.2 2386.400003576279 L 2821.2 2324.400003576279 L 2821.2 2324.400003576279 A 8 8 0 0 1 2829.2 2316.400003576279 L 3095.2 2316.400003576279 Z" fill-opacity="1" stroke-opacity="1" stroke-miterlimit="10" stroke-width="5"/><text fill="rgb(0,0,0)" stroke="none" font-family="Avenir, Helvetica, Arial, sans-serif" font-size="32px" font-style="normal" font-weight="bold" text-decoration="normal" x="3095.2" y="2371.400003576279" text-anchor="middle" dominant-baseline="text-after-edge" fill-opacity="1">cost_estimation_enabled</text><path fill="rgb(225,240,255)" stroke="rgb(29,122,218)" paint-order="fill stroke markers" d=" M 3095.2 3513.4000100135804 L 3361.2 3513.4000100135804 L 3361.2 3513.4000100135804 A 8 8 0 0 1 3369.2 3521.4000100135804 L 3369.2 3583.4000100135804 L 3369.2 3583.4000100135804 A 8 8 0 0 1 3361.2 3591.4000100135804 L 2829.2 3591.4000100135804 L 2829.2 3591.4000100135804 A 8 8 0 0 1 2821.2 3583.4000100135804 L 2821.2 3521.4000100135804 L 2821.2 3521.4000100135804 A 8 8 0 0 1 2829.2 3513.4000100135804 L 3095.2 3513.4000100135804 Z" fill-opacity="1" stroke-opacity="1" stroke-miterlimit="10" stroke-width="5"/><text fill="rgb(0,0,0)" stroke="none" font-family="Avenir, Helvetica, Arial, sans-serif" font-size="32px" font-style="normal" font-weight="bold" text-decoration="normal" x="3095.2" y="3568.4000100135804" text-anchor="middle" dominant-baseline="text-after-edge" fill-opacity="1">send_passing_statuses_for_untriggered_speculative_plans</text><path fill="rgb(225,240,255)" stroke="rgb(29,122,218)" paint-order="fill stroke markers" d=" M 3095.2 2449.4000042915345 L 3361.2 2449.4000042915345 L 3361.2 2449.4000042915345 A 8 8 0 0 1 3369.2 2457.4000042915345 L 3369.2 2519.4000042915345 L 3369.2 2519.4000042915345 A 8 8 0 0 1 3361.2 2527.4000042915345 L 2829.2 2527.4000042915345 L 2829.2 2527.4000042915345 A 8 8 0 0 1 2821.2 2519.4000042915345 L 2821.2 2457.4000042915345 L 2821.2 2457.4000042915345 A 8 8 0 0 1 2829.2 2449.4000042915345 L 3095.2 2449.4000042915345 Z" fill-opacity="1" stroke-opacity="1" stroke-miterlimit="10" stroke-width="5"/><text fill="rgb(0,0,0)" stroke="none" font-family="Avenir, Helvetica, Arial, sans-serif" font-size="32px" font-style="normal" font-weight="bold" text-decoration="normal" x="3095.2" y="2504.4000042915345" text-anchor="middle" dominant-baseline="text-after-edge" fill-opacity="1">email</text><path fill="rgb(225,240,255)" stroke="rgb(29,122,218)" paint-order="fill stroke markers" d=" M 3095.2 2582.4000050067903 L 3361.2 2582.4000050067903 L 3361.2 2582.4000050067903 A 8 8 0 0 1 3369.2 2590.4000050067903 L 3369.2 2652.4000050067903 L 3369.2 2652.4000050067903 A 8 8 0 0 1 3361.2 2660.4000050067903 L 2829.2 2660.4000050067903 L 2829.2 2660.4000050067903 A 8 8 0 0 1 2821.2 2652.4000050067903 L 2821.2 2590.4000050067903 L 2821.2 2590.4000050067903 A 8 8 0 0 1 2829.2 2582.4000050067903 L 3095.2 2582.4000050067903 Z" fill-opacity="1" stroke-opacity="1" stroke-miterlimit="10" stroke-width="5"/><text fill="rgb(0,0,0)" stroke="none" font-family="Avenir, Helvetica, Arial, sans-serif" font-size="32px" font-style="normal" font-weight="bold" text-decoration="normal" x="3095.2" y="2637.4000050067903" text-anchor="middle" dominant-baseline="text-after-edge" fill-opacity="1">name</text><path fill="rgb(225,240,255)" stroke="rgb(29,122,218)" paint-order="fill stroke markers" d=" M 3095.2 2715.400005722046 L 3361.2 2715.400005722046 L 3361.2 2715.400005722046 A 8 8 0 0 1 3369.2 2723.400005722046 L 3369.2 2785.400005722046 L 3369.2 2785.400005722046 A 8 8 0 0 1 3361.2 2793.400005722046 L 2829.2 2793.400005722046 L 2829.2 2793.400005722046 A 8 8 0 0 1 2821.2 2785.400005722046 L 2821.2 2723.400005722046 L 2821.2 2723.400005722046 A 8 8 0 0 1 2829.2 2715.400005722046 L 3095.2 2715.400005722046 Z" fill-opacity="1" stroke-opacity="1" stroke-miterlimit="10" stroke-width="5"/><text fill="rgb(0,0,0)" stroke="none" font-family="Avenir, Helvetica, Arial, sans-serif" font-size="32px" font-style="normal" font-weight="bold" text-decoration="normal" x="3095.2" y="2770.400005722046" text-anchor="middle" dominant-baseline="text-after-edge" fill-opacity="1">session_remember_minutes</text><path fill="rgb(225,240,255)" stroke="rgb(29,122,218)" paint-order="fill stroke markers" d=" M 3095.2 2848.4000064373017 L 3361.2 2848.4000064373017 L 3361.2 2848.4000064373017 A 8 8 0 0 1 3369.2 2856.4000064373017 L 3369.2 2918.4000064373017 L 3369.2 2918.4000064373017 A 8 8 0 0 1 3361.2 2926.4000064373017 L 2829.2 2926.4000064373017 L 2829.2 2926.4000064373017 A 8 8 0 0 1 2821.2 2918.4000064373017 L 2821.2 2856.4000064373017 L 2821.2 2856.4000064373017 A 8 8 0 0 1 2829.2 2848.4000064373017 L 3095.2 2848.4000064373017 Z" fill-opacity="1" stroke-opacity="1" stroke-miterlimit="10" stroke-width="5"/><text fill="rgb(0,0,0)" stroke="none" font-family="Avenir, Helvetica, Arial, sans-serif" font-size="32px" font-style="normal" font-weight="bold" text-decoration="normal" x="3095.2" y="2903.4000064373017" text-anchor="middle" dominant-baseline="text-after-edge" fill-opacity="1">force_regenerate</text><path fill="rgb(225,240,255)" stroke="rgb(29,122,218)" paint-order="fill stroke markers" d=" M 3095.2 2981.4000071525575 L 3361.2 2981.4000071525575 L 3361.2 2981.4000071525575 A 8 8 0 0 1 3369.2 2989.4000071525575 L 3369.2 3051.4000071525575 L 3369.2 3051.4000071525575 A 8 8 0 0 1 3361.2 3059.4000071525575 L 2829.2 3059.4000071525575 L 2829.2 3059.4000071525575 A 8 8 0 0 1 2821.2 3051.4000071525575 L 2821.2 2989.4000071525575 L 2821.2 2989.4000071525575 A 8 8 0 0 1 2829.2 2981.4000071525575 L 3095.2 2981.4000071525575 Z" fill-opacity="1" stroke-opacity="1" stroke-miterlimit="10" stroke-width="5"/><text fill="rgb(0,0,0)" stroke="none" font-family="Avenir, Helvetica, Arial, sans-serif" font-size="32px" font-style="normal" font-weight="bold" text-decoration="normal" x="3095.2" y="3036.4000071525575" text-anchor="middle" dominant-baseline="text-after-edge" fill-opacity="1">collaborator_auth_policy</text><path fill="rgb(225,240,255)" stroke="rgb(29,122,218)" paint-order="fill stroke markers" d=" M 3095.2 3114.400007867813 L 3361.2 3114.400007867813 L 3361.2 3114.400007867813 A 8 8 0 0 1 3369.2 3122.400007867813 L 3369.2 3184.400007867813 L 3369.2 3184.400007867813 A 8 8 0 0 1 3361.2 3192.400007867813 L 2829.2 3192.400007867813 L 2829.2 3192.400007867813 A 8 8 0 0 1 2821.2 3184.400007867813 L 2821.2 3122.400007867813 L 2821.2 3122.400007867813 A 8 8 0 0 1 2829.2 3114.400007867813 L 3095.2 3114.400007867813 Z" fill-opacity="1" stroke-opacity="1" stroke-miterlimit="10" stroke-width="5"/><text fill="rgb(0,0,0)" stroke="none" font-family="Avenir, Helvetica, Arial, sans-serif" font-size="32px" font-style="normal" font-weight="bold" text-decoration="normal" x="3095.2" y="3169.400007867813" text-anchor="middle" dominant-baseline="text-after-edge" fill-opacity="1">owners_team_saml_role_id</text><path fill="rgb(225,240,255)" stroke="rgb(29,122,218)" paint-order="fill stroke markers" d=" M 3095.2 3247.400008583069 L 3361.2 3247.400008583069 L 3361.2 3247.400008583069 A 8 8 0 0 1 3369.2 3255.400008583069 L 3369.2 3317.400008583069 L 3369.2 3317.400008583069 A 8 8 0 0 1 3361.2 3325.400008583069 L 2829.2 3325.400008583069 L 2829.2 3325.400008583069 A 8 8 0 0 1 2821.2 3317.400008583069 L 2821.2 3255.400008583069 L 2821.2 3255.400008583069 A 8 8 0 0 1 2829.2 3247.400008583069 L 3095.2 3247.400008583069 Z" fill-opacity="1" stroke-opacity="1" stroke-miterlimit="10" stroke-width="5"/><text fill="rgb(0,0,0)" stroke="none" font-family="Avenir, Helvetica, Arial, sans-serif" font-size="32px" font-style="normal" font-weight="bold" text-decoration="normal" x="3095.2" y="3302.400008583069" text-anchor="middle" dominant-baseline="text-after-edge" fill-opacity="1">members</text><path fill="rgb(225,240,255)" stroke="rgb(29,122,218)" paint-order="fill stroke markers" d=" M 3095.2 3380.4000092983247 L 3361.2 3380.4000092983247 L 3361.2 3380.4000092983247 A 8 8 0 0 1 3369.2 3388.4000092983247 L 3369.2 3450.4000092983247 L 3369.2 3450.4000092983247 A 8 8 0 0 1 3361.2 3458.4000092983247 L 2829.2 3458.4000092983247 L 2829.2 3458.4000092983247 A 8 8 0 0 1 2821.2 3450.4000092983247 L 2821.2 3388.4000092983247 L 2821.2 3388.4000092983247 A 8 8 0 0 1 2829.2 3380.4000092983247 L 3095.2 3380.4000092983247 Z" fill-opacity="1" stroke-opacity="1" stroke-miterlimit="10" stroke-width="5"/><text fill="rgb(0,0,0)" stroke="none" font-family="Avenir, Helvetica, Arial, sans-serif" font-size="32px" font-style="normal" font-weight="bold" text-decoration="normal" x="3095.2" y="3435.4000092983247" text-anchor="middle" dominant-baseline="text-after-edge" fill-opacity="1">session_timeout_minutes</text><path fill="rgb(40,167,69)" stroke="none" paint-order="stroke fill markers" d=" M 4198.200000715256 1360.0000021457672 L 4464.200000715256 1360.0000021457672 L 4464.200000715256 1360.0000021457672 A 8 8 0 0 1 4472.200000715256 1368.0000021457672 L 4472.200000715256 1430.0000021457672 L 4472.200000715256 1430.0000021457672 A 8 8 0 0 1 4464.200000715256 1438.0000021457672 L 3932.2000007152556 1438.0000021457672 L 3932.2000007152556 1438.0000021457672 A 8 8 0 0 1 3924.2000007152556 1430.0000021457672 L 3924.2000007152556 1368.0000021457672 L 3924.2000007152556 1368.0000021457672 A 8 8 0 0 1 3932.2000007152556 1360.0000021457672 L 4198.200000715256 1360.0000021457672 Z" fill-opacity="1"/><text fill="rgb(255,255,255)" stroke="none" font-family="Avenir, Helvetica, Arial, sans-serif" font-size="32px" font-style="normal" font-weight="bold" text-decoration="normal" x="4198.200000715256" y="1415.0000021457672" text-anchor="middle" dominant-baseline="text-after-edge" fill-opacity="1">default</text><path fill="rgb(40,167,69)" stroke="none" paint-order="stroke fill markers" d=" M 4198.200000715256 1688.200002861023 L 4464.200000715256 1688.200002861023 L 4464.200000715256 1688.200002861023 A 8 8 0 0 1 4472.200000715256 1696.200002861023 L 4472.200000715256 1758.200002861023 L 4472.200000715256 1758.200002861023 A 8 8 0 0 1 4464.200000715256 1766.200002861023 L 3932.2000007152556 1766.200002861023 L 3932.2000007152556 1766.200002861023 A 8 8 0 0 1 3924.2000007152556 1758.200002861023 L 3924.2000007152556 1696.200002861023 L 3924.2000007152556 1696.200002861023 A 8 8 0 0 1 3932.2000007152556 1688.200002861023 L 4198.200000715256 1688.200002861023 Z" fill-opacity="1"/><text fill="rgb(255,255,255)" stroke="none" font-family="Avenir, Helvetica, Arial, sans-serif" font-size="32px" font-style="normal" font-weight="bold" text-decoration="normal" x="4198.200000715256" y="1743.200002861023" text-anchor="middle" dominant-baseline="text-after-edge" fill-opacity="1">default</text><g transform="scale(5,5) translate(-57.7,-9.200000000000001)"/></g></svg>