<svg version="1.1" xmlns="http://www.w3.org/2000/svg" xmlns:xlink="http://www.w3.org/1999/xlink" width="232.20000000000002" height="275.2"><defs><linearGradient id="mICBwtQLohyN" x1="576.5px" x2="1129.0000007152557px" y1="300px" y2="400px" gradientUnits="userSpaceOnUse"><stop offset="0" stop-color="rgb(255,193,7)" stop-opacity="1"/><stop offset="1" stop-color="rgb(211,211,211)" stop-opacity="1"/></linearGradient><linearGradient id="MwiwqVLpwrRE" x1="1403.0000007152557px" x2="903.0000007152557px" y1="439px" y2="2316.700007867813px" gradientUnits="userSpaceOnUse"><stop offset="0" stop-color="rgb(211,211,211)" stop-opacity="1"/><stop offset="1" stop-color="rgb(29,122,218)" stop-opacity="1"/></linearGradient><linearGradient id="dGseFNxcKGLl" x1="1403.0000007152557px" x2="300px" y1="439px" y2="1651.7000042915345px" gradientUnits="userSpaceOnUse"><stop offset="0" stop-color="rgb(211,211,211)" stop-opacity="1"/><stop offset="1" stop-color="rgb(29,122,218)" stop-opacity="1"/></linearGradient><linearGradient id="DPTWPZUIhzUN" x1="1403.0000007152557px" x2="903.0000007152557px" y1="439px" y2="986.7000007152558px" gradientUnits="userSpaceOnUse"><stop offset="0" stop-color="rgb(211,211,211)" stop-opacity="1"/><stop offset="1" stop-color="rgb(29,122,218)" stop-opacity="1"/></linearGradient><linearGradient id="RQpCyEXXGSuU" x1="1403.0000007152557px" x2="903.0000007152557px" y1="439px" y2="1385.700002861023px" gradientUnits="userSpaceOnUse"><stop offset="0" stop-color="rgb(211,211,211)" stop-opacity="1"/><stop offset="1" stop-color="rgb(29,122,218)" stop-opacity="1"/></linearGradient><linearGradient id="cRXEekRNewSg" x1="1403.0000007152557px" x2="903.0000007152557px" y1="439px" y2="1784.7000050067902px" gradientUnits="userSpaceOnUse"><stop offset="0" stop-color="rgb(211,211,211)" stop-opacity="1"/><stop offset="1" stop-color="rgb(29,122,218)" stop-opacity="1"/></linearGradient><linearGradient id="ZWBcEiegrTQD" x1="1403.0000007152557px" x2="300px" y1="439px" y2="1518.7000035762787px" gradientUnits="userSpaceOnUse"><stop offset="0" stop-color="rgb(211,211,211)" stop-opacity="1"/><stop offset="1" stop-color="rgb(29,122,218)" stop-opacity="1"/></linearGradient><linearGradient id="JZlzZEZapTNc" x1="1403.0000007152557px" x2="300px" y1="439px" y2="1385.700002861023px" gradientUnits="userSpaceOnUse"><stop offset="0" stop-color="rgb(211,211,211)" stop-opacity="1"/><stop offset="1" stop-color="rgb(29,122,218)" stop-opacity="1"/></linearGradient><linearGradient id="LtTUCJNLIRII" x1="1403.0000007152557px" x2="300px" y1="439px" y2="1119.7000014305115px" gradientUnits="userSpaceOnUse"><stop offset="0" stop-color="rgb(211,211,211)" stop-opacity="1"/><stop offset="1" stop-color="rgb(29,122,218)" stop-opacity="1"/></linearGradient><linearGradient id="cOHPvflfcRFx" x1="1403.0000007152557px" x2="903.0000007152557px" y1="439px" y2="1518.7000035762787px" gradientUnits="userSpaceOnUse"><stop offset="0" stop-color="rgb(211,211,211)" stop-opacity="1"/><stop offset="1" stop-color="rgb(29,122,218)" stop-opacity="1"/></linearGradient><linearGradient id="AzhJREeWsnJv" x1="1403.0000007152557px" x2="300px" y1="439px" y2="1784.7000050067902px" gradientUnits="userSpaceOnUse"><stop offset="0" stop-color="rgb(211,211,211)" stop-opacity="1"/><stop offset="1" stop-color="rgb(29,122,218)" stop-opacity="1"/></linearGradient><linearGradient id="WxGfNEFxBMLM" x1="1403.0000007152557px" x2="300px" y1="439px" y2="1917.700005722046px" gradientUnits="userSpaceOnUse"><stop offset="0" stop-color="rgb(211,211,211)" stop-opacity="1"/><stop offset="1" stop-color="rgb(29,122,218)" stop-opacity="1"/></linearGradient><linearGradient id="OIMoxvMArGUb" x1="1403.0000007152557px" x2="300px" y1="439px" y2="2183.700007152557px" gradientUnits="userSpaceOnUse"><stop offset="0" stop-color="rgb(211,211,211)" stop-opacity="1"/><stop offset="1" stop-color="rgb(29,122,218)" stop-opacity="1"/></linearGradient><linearGradient id="TBGLSttIdXbx" x1="1129.0000007152557px" x2="576.5px" y1="400px" y2="1028.2000007152558px" gradientUnits="userSpaceOnUse"><stop offset="0" stop-color="rgb(211,211,211)" stop-opacity="1"/><stop offset="1" stop-color="rgb(29,122,218)" stop-opacity="1"/></linearGradient><linearGradient id="kPtcbQolXZlk" x1="1403.0000007152557px" x2="903.0000007152557px" y1="439px" y2="2050.7000064373015px" gradientUnits="userSpaceOnUse"><stop offset="0" stop-color="rgb(211,211,211)" stop-opacity="1"/><stop offset="1" stop-color="rgb(29,122,218)" stop-opacity="1"/></linearGradient><linearGradient id="DyiagdqDowuI" x1="1403.0000007152557px" x2="300px" y1="439px" y2="2316.700007867813px" gradientUnits="userSpaceOnUse"><stop offset="0" stop-color="rgb(211,211,211)" stop-opacity="1"/><stop offset="1" stop-color="rgb(29,122,218)" stop-opacity="1"/></linearGradient><linearGradient id="zgKSASnCaBBw" x1="1403.0000007152557px" x2="300px" y1="439px" y2="1252.7000021457673px" gradientUnits="userSpaceOnUse"><stop offset="0" stop-color="rgb(211,211,211)" stop-opacity="1"/><stop offset="1" stop-color="rgb(29,122,218)" stop-opacity="1"/></linearGradient><linearGradient id="EWvTygGQtdih" x1="1403.0000007152557px" x2="903.0000007152557px" y1="439px" y2="2183.700007152557px" gradientUnits="userSpaceOnUse"><stop offset="0" stop-color="rgb(211,211,211)" stop-opacity="1"/><stop offset="1" stop-color="rgb(29,122,218)" stop-opacity="1"/></linearGradient><linearGradient id="BfiWOzPJyizt" x1="1403.0000007152557px" x2="300px" y1="439px" y2="2050.7000064373015px" gradientUnits="userSpaceOnUse"><stop offset="0" stop-color="rgb(211,211,211)" stop-opacity="1"/><stop offset="1" stop-color="rgb(29,122,218)" stop-opacity="1"/></linearGradient></defs><g transform="translate(28.1,4.75) scale(0.1,0.1)"><path fill="rgb(244,236,255)" stroke="rgb(255,255,255)" paint-order="fill stroke markers" d=" M 879.5000003576279 -45.5 L 2030.0000007152557 -45.5 L 2030.0000007152557 -45.5 A 8 8 0 0 1 2038.0000007152557 -37.5 L 2038.0000007152557 2694.200007867813 L 2038.0000007152557 2694.200007867813 A 8 8 0 0 1 2030.0000007152557 2702.200007867813 L -271 2702.200007867813 L -271 2702.200007867813 A 8 8 0 0 1 -279 2694.200007867813 L -279 -37.5 L -279 -37.5 A 8 8 0 0 1 -271 -45.5 L 879.5000003576279 -45.5 Z" fill-opacity="1" stroke-opacity="1" stroke-miterlimit="10" stroke-width="2"/><text fill="rgb(0,0,0)" stroke="none" font-family="Avenir, Helvetica, Arial, sans-serif" font-size="32px" font-style="normal" font-weight="bold" text-decoration="normal" x="879.5000003576279" y="29.5" text-anchor="middle" dominant-baseline="text-after-edge" fill-opacity="1">.</text><path fill="rgb(255,255,255)" stroke="rgb(211,211,211)" paint-order="fill stroke markers" d=" M 300 157.5 L 669.5 157.5 L 669.5 157.5 A 8 8 0 0 1 677.5 165.5 L 677.5 434.5 L 677.5 434.5 A 8 8 0 0 1 669.5 442.5 L -69.5 442.5 L -69.5 442.5 A 8 8 0 0 1 -77.5 434.5 L -77.5 165.5 L -77.5 165.5 A 8 8 0 0 1 -69.5 157.5 L 300 157.5 Z" fill-opacity="1" stroke-opacity="1" stroke-miterlimit="10"/><text fill="rgb(0,0,0)" stroke="none" font-family="Avenir, Helvetica, Arial, sans-serif" font-size="32px" font-style="normal" font-weight="bold" text-decoration="normal" x="300" y="232.5" text-anchor="middle" dominant-baseline="text-after-edge" fill-opacity="1">outputs.tf</text><path fill="rgb(255,255,255)" stroke="rgb(211,211,211)" paint-order="fill stroke markers" d=" M 601.5000003576279 885.7000007152557 L 1272.5000007152557 885.7000007152557 L 1272.5000007152557 885.7000007152557 A 8 8 0 0 1 1280.5000007152557 893.7000007152557 L 1280.5000007152557 2492.700007867813 L 1280.5000007152557 2492.700007867813 A 8 8 0 0 1 1272.5000007152557 2500.700007867813 L -69.5 2500.700007867813 L -69.5 2500.700007867813 A 8 8 0 0 1 -77.5 2492.700007867813 L -77.5 893.7000007152557 L -77.5 893.7000007152557 A 8 8 0 0 1 -69.5 885.7000007152557 L 601.5000003576279 885.7000007152557 Z" fill-opacity="1" stroke-opacity="1" stroke-miterlimit="10"/><text fill="rgb(0,0,0)" stroke="none" font-family="Avenir, Helvetica, Arial, sans-serif" font-size="32px" font-style="normal" font-weight="bold" text-decoration="normal" x="601.5000003576279" y="960.7000007152557" text-anchor="middle" dominant-baseline="text-after-edge" fill-opacity="1">variables.tf</text><path fill="rgb(255,255,255)" stroke="rgb(211,211,211)" paint-order="fill stroke markers" d=" M 1403.0000007152557 156 L 1828.5000007152557 156 L 1828.5000007152557 156 A 8 8 0 0 1 1836.5000007152557 164 L 1836.5000007152557 590.5 L 1836.5000007152557 590.5 A 8 8 0 0 1 1828.5000007152557 598.5 L 977.5000007152557 598.5 L 977.5000007152557 598.5 A 8 8 0 0 1 969.5000007152557 590.5 L 969.5000007152557 164 L 969.5000007152557 164 A 8 8 0 0 1 977.5000007152557 156 L 1403.0000007152557 156 Z" fill-opacity="1" stroke-opacity="1" stroke-miterlimit="10"/><text fill="rgb(0,0,0)" stroke="none" font-family="Avenir, Helvetica, Arial, sans-serif" font-size="32px" font-style="normal" font-weight="bold" text-decoration="normal" x="1403.0000007152557" y="231" text-anchor="middle" dominant-baseline="text-after-edge" fill-opacity="1">main.tf</text><path fill="rgb(255,255,255)" stroke="rgb(0,0,0)" paint-order="fill stroke markers" d=" M 1403.0000007152557 305 L 1725.0000007152557 305 L 1725.0000007152557 305 A 8 8 0 0 1 1733.0000007152557 313 L 1733.0000007152557 487 L 1733.0000007152557 487 A 8 8 0 0 1 1725.0000007152557 495 L 1081.0000007152557 495 L 1081.0000007152557 495 A 8 8 0 0 1 1073.0000007152557 487 L 1073.0000007152557 313 L 1073.0000007152557 313 A 8 8 0 0 1 1081.0000007152557 305 L 1403.0000007152557 305 Z" fill-opacity="1" stroke-opacity="1" stroke-miterlimit="10" stroke-width="5"/><rect fill="rgb(255,255,255)" stroke="none" x="1255.5000007152557" y="256" width="295" height="96" fill-opacity="1"/><text fill="rgb(0,0,0)" stroke="none" font-family="Avenir, Helvetica, Arial, sans-serif" font-size="32px" font-style="normal" font-weight="bold" text-decoration="normal" x="1403.0000007152557" y="320" text-anchor="middle" dominant-baseline="text-after-edge" fill-opacity="1">tfe_workspace</text><path fill="none" stroke="url(#mICBwtQLohyN)" paint-order="fill stroke markers" d=" M 576.5 300 L 852.7500003576279 300 L 852.7500003576279 400 L 1129.0000007152557 400" stroke-linejoin="round" stroke-miterlimit="10" stroke-width="10"/><path fill="none" stroke="url(#MwiwqVLpwrRE)" paint-order="fill stroke markers" d=" M 1403.0000007152557 439 L 1403.0000007152557 1377.8500039339065 L 903.0000007152557 1377.8500039339065 L 903.0000007152557 2316.700007867813" stroke-linejoin="round" stroke-miterlimit="10" stroke-width="10"/><path fill="none" stroke="url(#dGseFNxcKGLl)" paint-order="fill stroke markers" d=" M 1403.0000007152557 439 L 1403.0000007152557 1045.3500021457671 L 300 1045.3500021457671 L 300 1651.7000042915345" stroke-linejoin="round" stroke-miterlimit="10" stroke-width="10"/><path fill="none" stroke="url(#DPTWPZUIhzUN)" paint-order="fill stroke markers" d=" M 1403.0000007152557 439 L 1403.0000007152557 712.8500003576279 L 903.0000007152557 712.8500003576279 L 903.0000007152557 986.7000007152558" stroke-linejoin="round" stroke-miterlimit="10" stroke-width="10"/><path fill="none" stroke="url(#RQpCyEXXGSuU)" paint-order="fill stroke markers" d=" M 1403.0000007152557 439 L 1403.0000007152557 912.3500014305115 L 903.0000007152557 912.3500014305115 L 903.0000007152557 1385.700002861023" stroke-linejoin="round" stroke-miterlimit="10" stroke-width="10"/><path fill="none" stroke="url(#cRXEekRNewSg)" paint-order="fill stroke markers" d=" M 1403.0000007152557 439 L 1403.0000007152557 1111.850002503395 L 903.0000007152557 1111.850002503395 L 903.0000007152557 1784.7000050067902" stroke-linejoin="round" stroke-miterlimit="10" stroke-width="10"/><path fill="none" stroke="url(#ZWBcEiegrTQD)" paint-order="fill stroke markers" d=" M 1403.0000007152557 439 L 1403.0000007152557 978.8500017881394 L 300 978.8500017881394 L 300 1518.7000035762787" stroke-linejoin="round" stroke-miterlimit="10" stroke-width="10"/><path fill="none" stroke="url(#JZlzZEZapTNc)" paint-order="fill stroke markers" d=" M 1403.0000007152557 439 L 1403.0000007152557 912.3500014305115 L 300 912.3500014305115 L 300 1385.700002861023" stroke-linejoin="round" stroke-miterlimit="10" stroke-width="10"/><path fill="none" stroke="url(#LtTUCJNLIRII)" paint-order="fill stroke markers" d=" M 1403.0000007152557 439 L 1403.0000007152557 779.3500007152558 L 300 779.3500007152558 L 300 1119.7000014305115" stroke-linejoin="round" stroke-miterlimit="10" stroke-width="10"/><path fill="none" stroke="url(#cOHPvflfcRFx)" paint-order="fill stroke markers" d=" M 1403.0000007152557 439 L 1403.0000007152557 978.8500017881394 L 903.0000007152557 978.8500017881394 L 903.0000007152557 1518.7000035762787" stroke-linejoin="round" stroke-miterlimit="10" stroke-width="10"/><path fill="none" stroke="url(#AzhJREeWsnJv)" paint-order="fill stroke markers" d=" M 1403.0000007152557 439 L 1403.0000007152557 1111.850002503395 L 300 1111.850002503395 L 300 1784.7000050067902" stroke-linejoin="round" stroke-miterlimit="10" stroke-width="10"/><path fill="none" stroke="url(#WxGfNEFxBMLM)" paint-order="fill stroke markers" d=" M 1403.0000007152557 439 L 1403.0000007152557 1178.3500028610229 L 300 1178.3500028610229 L 300 1917.700005722046" stroke-linejoin="round" stroke-miterlimit="10" stroke-width="10"/><path fill="none" stroke="url(#OIMoxvMArGUb)" paint-order="fill stroke markers" d=" M 1403.0000007152557 439 L 1403.0000007152557 1311.3500035762786 L 300 1311.3500035762786 L 300 2183.700007152557" stroke-linejoin="round" stroke-miterlimit="10" stroke-width="10"/><path fill="none" stroke="url(#TBGLSttIdXbx)" paint-order="fill stroke markers" d=" M 1129.0000007152557 400 L 852.7500003576279 400 L 852.7500003576279 1028.2000007152558 L 576.5 1028.2000007152558" stroke-linejoin="round" stroke-miterlimit="10" stroke-width="10"/><path fill="none" stroke="url(#kPtcbQolXZlk)" paint-order="fill stroke markers" d=" M 1403.0000007152557 439 L 1403.0000007152557 1244.8500032186507 L 903.0000007152557 1244.8500032186507 L 903.0000007152557 2050.7000064373015" stroke-linejoin="round" stroke-miterlimit="10" stroke-width="10"/><path fill="none" stroke="url(#DyiagdqDowuI)" paint-order="fill stroke markers" d=" M 1403.0000007152557 439 L 1403.0000007152557 1377.8500039339065 L 300 1377.8500039339065 L 300 2316.700007867813" stroke-linejoin="round" stroke-miterlimit="10" stroke-width="10"/><path fill="none" stroke="url(#zgKSASnCaBBw)" paint-order="fill stroke markers" d=" M 1403.0000007152557 439 L 1403.0000007152557 845.8500010728836 L 300 845.8500010728836 L 300 1252.7000021457673" stroke-linejoin="round" stroke-miterlimit="10" stroke-width="10"/><path fill="none" stroke="url(#EWvTygGQtdih)" paint-order="fill stroke markers" d=" M 1403.0000007152557 439 L 1403.0000007152557 1311.3500035762786 L 903.0000007152557 1311.3500035762786 L 903.0000007152557 2183.700007152557" stroke-linejoin="round" stroke-miterlimit="10" stroke-width="10"/><path fill="none" stroke="url(#BfiWOzPJyizt)" paint-order="fill stroke markers" d=" M 1403.0000007152557 439 L 1403.0000007152557 1244.8500032186507 L 300 1244.8500032186507 L 300 2050.7000064373015" stroke-linejoin="round" stroke-miterlimit="10" stroke-width="10"/><path fill="rgb(255,247,224)" stroke="rgb(255,193,7)" paint-order="fill stroke markers" d=" M 300 261 L 566 261 L 566 261 A 8 8 0 0 1 574 269 L 574 331 L 574 331 A 8 8 0 0 1 566 339 L 34 339 L 34 339 A 8 8 0 0 1 26 331 L 26 269 L 26 269 A 8 8 0 0 1 34 261 L 300 261 Z" fill-opacity="1" stroke-opacity="1" stroke-miterlimit="10" stroke-width="5"/><text fill="rgb(0,0,0)" stroke="none" font-family="Avenir, Helvetica, Arial, sans-serif" font-size="32px" font-style="normal" font-weight="bold" text-decoration="normal" x="300" y="316" text-anchor="middle" dominant-baseline="text-after-edge" fill-opacity="1">id</text><path fill="rgb(225,240,255)" stroke="rgb(29,122,218)" paint-order="fill stroke markers" d=" M 300 989.2000007152558 L 566 989.2000007152558 L 566 989.2000007152558 A 8 8 0 0 1 574 997.2000007152558 L 574 1059.2000007152558 L 574 1059.2000007152558 A 8 8 0 0 1 566 1067.2000007152558 L 34 1067.2000007152558 L 34 1067.2000007152558 A 8 8 0 0 1 26 1059.2000007152558 L 26 997.2000007152558 L 26 997.2000007152558 A 8 8 0 0 1 34 989.2000007152558 L 300 989.2000007152558 Z" fill-opacity="1" stroke-opacity="1" stroke-miterlimit="10" stroke-width="5"/><text fill="rgb(0,0,0)" stroke="none" font-family="Avenir, Helvetica, Arial, sans-serif" font-size="32px" font-style="normal" font-weight="bold" text-decoration="normal" x="300" y="1044.2000007152558" text-anchor="middle" dominant-baseline="text-after-edge" fill-opacity="1">agent_pool_id</text><path fill="rgb(225,240,255)" stroke="rgb(29,122,218)" paint-order="fill stroke markers" d=" M 903.0000007152557 989.2000007152558 L 1169.0000007152557 989.2000007152558 L 1169.0000007152557 989.2000007152558 A 8 8 0 0 1 1177.0000007152557 997.2000007152558 L 1177.0000007152557 1059.2000007152558 L 1177.0000007152557 1059.2000007152558 A 8 8 0 0 1 1169.0000007152557 1067.2000007152558 L 637.0000007152557 1067.2000007152558 L 637.0000007152557 1067.2000007152558 A 8 8 0 0 1 629.0000007152557 1059.2000007152558 L 629.0000007152557 997.2000007152558 L 629.0000007152557 997.2000007152558 A 8 8 0 0 1 637.0000007152557 989.2000007152558 L 903.0000007152557 989.2000007152558 Z" fill-opacity="1" stroke-opacity="1" stroke-miterlimit="10" stroke-width="5"/><text fill="rgb(0,0,0)" stroke="none" font-family="Avenir, Helvetica, Arial, sans-serif" font-size="32px" font-style="normal" font-weight="bold" text-decoration="normal" x="903.0000007152557" y="1044.2000007152558" text-anchor="middle" dominant-baseline="text-after-edge" fill-opacity="1">queue_all_runs</text><path fill="rgb(225,240,255)" stroke="rgb(29,122,218)" paint-order="fill stroke markers" d=" M 300 1122.2000014305115 L 566 1122.2000014305115 L 566 1122.2000014305115 A 8 8 0 0 1 574 1130.2000014305115 L 574 1192.2000014305115 L 574 1192.2000014305115 A 8 8 0 0 1 566 1200.2000014305115 L 34 1200.2000014305115 L 34 1200.2000014305115 A 8 8 0 0 1 26 1192.2000014305115 L 26 1130.2000014305115 L 26 1130.2000014305115 A 8 8 0 0 1 34 1122.2000014305115 L 300 1122.2000014305115 Z" fill-opacity="1" stroke-opacity="1" stroke-miterlimit="10" stroke-width="5"/><text fill="rgb(0,0,0)" stroke="none" font-family="Avenir, Helvetica, Arial, sans-serif" font-size="32px" font-style="normal" font-weight="bold" text-decoration="normal" x="300" y="1177.2000014305115" text-anchor="middle" dominant-baseline="text-after-edge" fill-opacity="1">description</text><path fill="rgb(225,240,255)" stroke="rgb(29,122,218)" paint-order="fill stroke markers" d=" M 903.0000007152557 1122.2000014305115 L 1169.0000007152557 1122.2000014305115 L 1169.0000007152557 1122.2000014305115 A 8 8 0 0 1 1177.0000007152557 1130.2000014305115 L 1177.0000007152557 1192.2000014305115 L 1177.0000007152557 1192.2000014305115 A 8 8 0 0 1 1169.0000007152557 1200.2000014305115 L 637.0000007152557 1200.2000014305115 L 637.0000007152557 1200.2000014305115 A 8 8 0 0 1 629.0000007152557 1192.2000014305115 L 629.0000007152557 1130.2000014305115 L 629.0000007152557 1130.2000014305115 A 8 8 0 0 1 637.0000007152557 1122.2000014305115 L 903.0000007152557 1122.2000014305115 Z" fill-opacity="1" stroke-opacity="1" stroke-miterlimit="10" stroke-width="5"/><text fill="rgb(0,0,0)" stroke="none" font-family="Avenir, Helvetica, Arial, sans-serif" font-size="32px" font-style="normal" font-weight="bold" text-decoration="normal" x="903.0000007152557" y="1177.2000014305115" text-anchor="middle" dominant-baseline="text-after-edge" fill-opacity="1">ingress_submodules</text><path fill="rgb(225,240,255)" stroke="rgb(29,122,218)" paint-order="fill stroke markers" d=" M 300 1255.2000021457673 L 566 1255.2000021457673 L 566 1255.2000021457673 A 8 8 0 0 1 574 1263.2000021457673 L 574 1325.2000021457673 L 574 1325.2000021457673 A 8 8 0 0 1 566 1333.2000021457673 L 34 1333.2000021457673 L 34 1333.2000021457673 A 8 8 0 0 1 26 1325.2000021457673 L 26 1263.2000021457673 L 26 1263.2000021457673 A 8 8 0 0 1 34 1255.2000021457673 L 300 1255.2000021457673 Z" fill-opacity="1" stroke-opacity="1" stroke-miterlimit="10" stroke-width="5"/><text fill="rgb(0,0,0)" stroke="none" font-family="Avenir, Helvetica, Arial, sans-serif" font-size="32px" font-style="normal" font-weight="bold" text-decoration="normal" x="300" y="1310.2000021457673" text-anchor="middle" dominant-baseline="text-after-edge" fill-opacity="1">structured_run_output_enabled</text><path fill="rgb(225,240,255)" stroke="rgb(29,122,218)" paint-order="fill stroke markers" d=" M 903.0000007152557 1255.2000021457673 L 1169.0000007152557 1255.2000021457673 L 1169.0000007152557 1255.2000021457673 A 8 8 0 0 1 1177.0000007152557 1263.2000021457673 L 1177.0000007152557 1325.2000021457673 L 1177.0000007152557 1325.2000021457673 A 8 8 0 0 1 1169.0000007152557 1333.2000021457673 L 637.0000007152557 1333.2000021457673 L 637.0000007152557 1333.2000021457673 A 8 8 0 0 1 629.0000007152557 1325.2000021457673 L 629.0000007152557 1263.2000021457673 L 629.0000007152557 1263.2000021457673 A 8 8 0 0 1 637.0000007152557 1255.2000021457673 L 903.0000007152557 1255.2000021457673 Z" fill-opacity="1" stroke-opacity="1" stroke-miterlimit="10" stroke-width="5"/><text fill="rgb(0,0,0)" stroke="none" font-family="Avenir, Helvetica, Arial, sans-serif" font-size="32px" font-style="normal" font-weight="bold" text-decoration="normal" x="903.0000007152557" y="1310.2000021457673" text-anchor="middle" dominant-baseline="text-after-edge" fill-opacity="1">oauth_token_id</text><path fill="rgb(225,240,255)" stroke="rgb(29,122,218)" paint-order="fill stroke markers" d=" M 300 1388.200002861023 L 566 1388.200002861023 L 566 1388.200002861023 A 8 8 0 0 1 574 1396.200002861023 L 574 1458.200002861023 L 574 1458.200002861023 A 8 8 0 0 1 566 1466.200002861023 L 34 1466.200002861023 L 34 1466.200002861023 A 8 8 0 0 1 26 1458.200002861023 L 26 1396.200002861023 L 26 1396.200002861023 A 8 8 0 0 1 34 1388.200002861023 L 300 1388.200002861023 Z" fill-opacity="1" stroke-opacity="1" stroke-miterlimit="10" stroke-width="5"/><text fill="rgb(0,0,0)" stroke="none" font-family="Avenir, Helvetica, Arial, sans-serif" font-size="32px" font-style="normal" font-weight="bold" text-decoration="normal" x="300" y="1443.200002861023" text-anchor="middle" dominant-baseline="text-after-edge" fill-opacity="1">auto_apply</text><path fill="rgb(225,240,255)" stroke="rgb(29,122,218)" paint-order="fill stroke markers" d=" M 903.0000007152557 1388.200002861023 L 1169.0000007152557 1388.200002861023 L 1169.0000007152557 1388.200002861023 A 8 8 0 0 1 1177.0000007152557 1396.200002861023 L 1177.0000007152557 1458.200002861023 L 1177.0000007152557 1458.200002861023 A 8 8 0 0 1 1169.0000007152557 1466.200002861023 L 637.0000007152557 1466.200002861023 L 637.0000007152557 1466.200002861023 A 8 8 0 0 1 629.0000007152557 1458.200002861023 L 629.0000007152557 1396.200002861023 L 629.0000007152557 1396.200002861023 A 8 8 0 0 1 637.0000007152557 1388.200002861023 L 903.0000007152557 1388.200002861023 Z" fill-opacity="1" stroke-opacity="1" stroke-miterlimit="10" stroke-width="5"/><text fill="rgb(0,0,0)" stroke="none" font-family="Avenir, Helvetica, Arial, sans-serif" font-size="32px" font-style="normal" font-weight="bold" text-decoration="normal" x="903.0000007152557" y="1443.200002861023" text-anchor="middle" dominant-baseline="text-after-edge" fill-opacity="1">tag_names</text><path fill="rgb(225,240,255)" stroke="rgb(29,122,218)" paint-order="fill stroke markers" d=" M 300 1521.2000035762787 L 566 1521.2000035762787 L 566 1521.2000035762787 A 8 8 0 0 1 574 1529.2000035762787 L 574 1591.2000035762787 L 574 1591.2000035762787 A 8 8 0 0 1 566 1599.2000035762787 L 34 1599.2000035762787 L 34 1599.2000035762787 A 8 8 0 0 1 26 1591.2000035762787 L 26 1529.2000035762787 L 26 1529.2000035762787 A 8 8 0 0 1 34 1521.2000035762787 L 300 1521.2000035762787 Z" fill-opacity="1" stroke-opacity="1" stroke-miterlimit="10" stroke-width="5"/><text fill="rgb(0,0,0)" stroke="none" font-family="Avenir, Helvetica, Arial, sans-serif" font-size="32px" font-style="normal" font-weight="bold" text-decoration="normal" x="300" y="1576.2000035762787" text-anchor="middle" dominant-baseline="text-after-edge" fill-opacity="1">working_directory</text><path fill="rgb(225,240,255)" stroke="rgb(29,122,218)" paint-order="fill stroke markers" d=" M 903.0000007152557 1521.2000035762787 L 1169.0000007152557 1521.2000035762787 L 1169.0000007152557 1521.2000035762787 A 8 8 0 0 1 1177.0000007152557 1529.2000035762787 L 1177.0000007152557 1591.2000035762787 L 1177.0000007152557 1591.2000035762787 A 8 8 0 0 1 1169.0000007152557 1599.2000035762787 L 637.0000007152557 1599.2000035762787 L 637.0000007152557 1599.2000035762787 A 8 8 0 0 1 629.0000007152557 1591.2000035762787 L 629.0000007152557 1529.2000035762787 L 629.0000007152557 1529.2000035762787 A 8 8 0 0 1 637.0000007152557 1521.2000035762787 L 903.0000007152557 1521.2000035762787 Z" fill-opacity="1" stroke-opacity="1" stroke-miterlimit="10" stroke-width="5"/><text fill="rgb(0,0,0)" stroke="none" font-family="Avenir, Helvetica, Arial, sans-serif" font-size="32px" font-style="normal" font-weight="bold" text-decoration="normal" x="903.0000007152557" y="1576.2000035762787" text-anchor="middle" dominant-baseline="text-after-edge" fill-opacity="1">name</text><path fill="rgb(225,240,255)" stroke="rgb(29,122,218)" paint-order="fill stroke markers" d=" M 300 1654.2000042915345 L 566 1654.2000042915345 L 566 1654.2000042915345 A 8 8 0 0 1 574 1662.2000042915345 L 574 1724.2000042915345 L 574 1724.2000042915345 A 8 8 0 0 1 566 1732.2000042915345 L 34 1732.2000042915345 L 34 1732.2000042915345 A 8 8 0 0 1 26 1724.2000042915345 L 26 1662.2000042915345 L 26 1662.2000042915345 A 8 8 0 0 1 34 1654.2000042915345 L 300 1654.2000042915345 Z" fill-opacity="1" stroke-opacity="1" stroke-miterlimit="10" stroke-width="5"/><text fill="rgb(0,0,0)" stroke="none" font-family="Avenir, Helvetica, Arial, sans-serif" font-size="32px" font-style="normal" font-weight="bold" text-decoration="normal" x="300" y="1709.2000042915345" text-anchor="middle" dominant-baseline="text-after-edge" fill-opacity="1">organization</text><path fill="rgb(225,240,255)" stroke="rgb(29,122,218)" paint-order="fill stroke markers" d=" M 903.0000007152557 1654.2000042915345 L 1169.0000007152557 1654.2000042915345 L 1169.0000007152557 1654.2000042915345 A 8 8 0 0 1 1177.0000007152557 1662.2000042915345 L 1177.0000007152557 1724.2000042915345 L 1177.0000007152557 1724.2000042915345 A 8 8 0 0 1 1169.0000007152557 1732.2000042915345 L 637.0000007152557 1732.2000042915345 L 637.0000007152557 1732.2000042915345 A 8 8 0 0 1 629.0000007152557 1724.2000042915345 L 629.0000007152557 1662.2000042915345 L 629.0000007152557 1662.2000042915345 A 8 8 0 0 1 637.0000007152557 1654.2000042915345 L 903.0000007152557 1654.2000042915345 Z" fill-opacity="1" stroke-opacity="1" stroke-miterlimit="10" stroke-width="5"/><text fill="rgb(0,0,0)" stroke="none" font-family="Avenir, Helvetica, Arial, sans-serif" font-size="32px" font-style="normal" font-weight="bold" text-decoration="normal" x="903.0000007152557" y="1709.2000042915345" text-anchor="middle" dominant-baseline="text-after-edge" fill-opacity="1">identifier</text><path fill="rgb(225,240,255)" stroke="rgb(29,122,218)" paint-order="fill stroke markers" d=" M 300 1787.2000050067902 L 566 1787.2000050067902 L 566 1787.2000050067902 A 8 8 0 0 1 574 1795.2000050067902 L 574 1857.2000050067902 L 574 1857.2000050067902 A 8 8 0 0 1 566 1865.2000050067902 L 34 1865.2000050067902 L 34 1865.2000050067902 A 8 8 0 0 1 26 1857.2000050067902 L 26 1795.2000050067902 L 26 1795.2000050067902 A 8 8 0 0 1 34 1787.2000050067902 L 300 1787.2000050067902 Z" fill-opacity="1" stroke-opacity="1" stroke-miterlimit="10" stroke-width="5"/><text fill="rgb(0,0,0)" stroke="none" font-family="Avenir, Helvetica, Arial, sans-serif" font-size="32px" font-style="normal" font-weight="bold" text-decoration="normal" x="300" y="1842.2000050067902" text-anchor="middle" dominant-baseline="text-after-edge" fill-opacity="1">ssh_key_id</text><path fill="rgb(225,240,255)" stroke="rgb(29,122,218)" paint-order="fill stroke markers" d=" M 903.0000007152557 1787.2000050067902 L 1169.0000007152557 1787.2000050067902 L 1169.0000007152557 1787.2000050067902 A 8 8 0 0 1 1177.0000007152557 1795.2000050067902 L 1177.0000007152557 1857.2000050067902 L 1177.0000007152557 1857.2000050067902 A 8 8 0 0 1 1169.0000007152557 1865.2000050067902 L 637.0000007152557 1865.2000050067902 L 637.0000007152557 1865.2000050067902 A 8 8 0 0 1 629.0000007152557 1857.2000050067902 L 629.0000007152557 1795.2000050067902 L 629.0000007152557 1795.2000050067902 A 8 8 0 0 1 637.0000007152557 1787.2000050067902 L 903.0000007152557 1787.2000050067902 Z" fill-opacity="1" stroke-opacity="1" stroke-miterlimit="10" stroke-width="5"/><text fill="rgb(0,0,0)" stroke="none" font-family="Avenir, Helvetica, Arial, sans-serif" font-size="32px" font-style="normal" font-weight="bold" text-decoration="normal" x="903.0000007152557" y="1842.2000050067902" text-anchor="middle" dominant-baseline="text-after-edge" fill-opacity="1">terraform_version</text><path fill="rgb(225,240,255)" stroke="rgb(29,122,218)" paint-order="fill stroke markers" d=" M 300 1920.200005722046 L 566 1920.200005722046 L 566 1920.200005722046 A 8 8 0 0 1 574 1928.200005722046 L 574 1990.200005722046 L 574 1990.200005722046 A 8 8 0 0 1 566 1998.200005722046 L 34 1998.200005722046 L 34 1998.200005722046 A 8 8 0 0 1 26 1990.200005722046 L 26 1928.200005722046 L 26 1928.200005722046 A 8 8 0 0 1 34 1920.200005722046 L 300 1920.200005722046 Z" fill-opacity="1" stroke-opacity="1" stroke-miterlimit="10" stroke-width="5"/><text fill="rgb(0,0,0)" stroke="none" font-family="Avenir, Helvetica, Arial, sans-serif" font-size="32px" font-style="normal" font-weight="bold" text-decoration="normal" x="300" y="1975.200005722046" text-anchor="middle" dominant-baseline="text-after-edge" fill-opacity="1">file_triggers_enabled</text><path fill="rgb(225,240,255)" stroke="rgb(29,122,218)" paint-order="fill stroke markers" d=" M 903.0000007152557 1920.200005722046 L 1169.0000007152557 1920.200005722046 L 1169.0000007152557 1920.200005722046 A 8 8 0 0 1 1177.0000007152557 1928.200005722046 L 1177.0000007152557 1990.200005722046 L 1177.0000007152557 1990.200005722046 A 8 8 0 0 1 1169.0000007152557 1998.200005722046 L 637.0000007152557 1998.200005722046 L 637.0000007152557 1998.200005722046 A 8 8 0 0 1 629.0000007152557 1990.200005722046 L 629.0000007152557 1928.200005722046 L 629.0000007152557 1928.200005722046 A 8 8 0 0 1 637.0000007152557 1920.200005722046 L 903.0000007152557 1920.200005722046 Z" fill-opacity="1" stroke-opacity="1" stroke-miterlimit="10" stroke-width="5"/><text fill="rgb(0,0,0)" stroke="none" font-family="Avenir, Helvetica, Arial, sans-serif" font-size="32px" font-style="normal" font-weight="bold" text-decoration="normal" x="903.0000007152557" y="1975.200005722046" text-anchor="middle" dominant-baseline="text-after-edge" fill-opacity="1">branch</text><path fill="rgb(225,240,255)" stroke="rgb(29,122,218)" paint-order="fill stroke markers" d=" M 300 2053.2000064373015 L 566 2053.2000064373015 L 566 2053.2000064373015 A 8 8 0 0 1 574 2061.2000064373015 L 574 2123.2000064373015 L 574 2123.2000064373015 A 8 8 0 0 1 566 2131.2000064373015 L 34 2131.2000064373015 L 34 2131.2000064373015 A 8 8 0 0 1 26 2123.2000064373015 L 26 2061.2000064373015 L 26 2061.2000064373015 A 8 8 0 0 1 34 2053.2000064373015 L 300 2053.2000064373015 Z" fill-opacity="1" stroke-opacity="1" stroke-miterlimit="10" stroke-width="5"/><text fill="rgb(0,0,0)" stroke="none" font-family="Avenir, Helvetica, Arial, sans-serif" font-size="32px" font-style="normal" font-weight="bold" text-decoration="normal" x="300" y="2108.2000064373015" text-anchor="middle" dominant-baseline="text-after-edge" fill-opacity="1">remote_state_consumer_ids</text><path fill="rgb(225,240,255)" stroke="rgb(29,122,218)" paint-order="fill stroke markers" d=" M 903.0000007152557 2053.2000064373015 L 1169.0000007152557 2053.2000064373015 L 1169.0000007152557 2053.2000064373015 A 8 8 0 0 1 1177.0000007152557 2061.2000064373015 L 1177.0000007152557 2123.2000064373015 L 1177.0000007152557 2123.2000064373015 A 8 8 0 0 1 1169.0000007152557 2131.2000064373015 L 637.0000007152557 2131.2000064373015 L 637.0000007152557 2131.2000064373015 A 8 8 0 0 1 629.0000007152557 2123.2000064373015 L 629.0000007152557 2061.2000064373015 L 629.0000007152557 2061.2000064373015 A 8 8 0 0 1 637.0000007152557 2053.2000064373015 L 903.0000007152557 2053.2000064373015 Z" fill-opacity="1" stroke-opacity="1" stroke-miterlimit="10" stroke-width="5"/><text fill="rgb(0,0,0)" stroke="none" font-family="Avenir, Helvetica, Arial, sans-serif" font-size="32px" font-style="normal" font-weight="bold" text-decoration="normal" x="903.0000007152557" y="2108.2000064373015" text-anchor="middle" dominant-baseline="text-after-edge" fill-opacity="1">allow_destroy_plan</text><path fill="rgb(225,240,255)" stroke="rgb(29,122,218)" paint-order="fill stroke markers" d=" M 300 2186.200007152557 L 566 2186.200007152557 L 566 2186.200007152557 A 8 8 0 0 1 574 2194.200007152557 L 574 2256.200007152557 L 574 2256.200007152557 A 8 8 0 0 1 566 2264.200007152557 L 34 2264.200007152557 L 34 2264.200007152557 A 8 8 0 0 1 26 2256.200007152557 L 26 2194.200007152557 L 26 2194.200007152557 A 8 8 0 0 1 34 2186.200007152557 L 300 2186.200007152557 Z" fill-opacity="1" stroke-opacity="1" stroke-miterlimit="10" stroke-width="5"/><text fill="rgb(0,0,0)" stroke="none" font-family="Avenir, Helvetica, Arial, sans-serif" font-size="32px" font-style="normal" font-weight="bold" text-decoration="normal" x="300" y="2241.200007152557" text-anchor="middle" dominant-baseline="text-after-edge" fill-opacity="1">trigger_prefixes</text><path fill="rgb(225,240,255)" stroke="rgb(29,122,218)" paint-order="fill stroke markers" d=" M 903.0000007152557 2186.200007152557 L 1169.0000007152557 2186.200007152557 L 1169.0000007152557 2186.200007152557 A 8 8 0 0 1 1177.0000007152557 2194.200007152557 L 1177.0000007152557 2256.200007152557 L 1177.0000007152557 2256.200007152557 A 8 8 0 0 1 1169.0000007152557 2264.200007152557 L 637.0000007152557 2264.200007152557 L 637.0000007152557 2264.200007152557 A 8 8 0 0 1 629.0000007152557 2256.200007152557 L 629.0000007152557 2194.200007152557 L 629.0000007152557 2194.200007152557 A 8 8 0 0 1 637.0000007152557 2186.200007152557 L 903.0000007152557 2186.200007152557 Z" fill-opacity="1" stroke-opacity="1" stroke-miterlimit="10" stroke-width="5"/><text fill="rgb(0,0,0)" stroke="none" font-family="Avenir, Helvetica, Arial, sans-serif" font-size="32px" font-style="normal" font-weight="bold" text-decoration="normal" x="903.0000007152557" y="2241.200007152557" text-anchor="middle" dominant-baseline="text-after-edge" fill-opacity="1">execution_mode</text><path fill="rgb(225,240,255)" stroke="rgb(29,122,218)" paint-order="fill stroke markers" d=" M 300 2319.200007867813 L 566 2319.200007867813 L 566 2319.200007867813 A 8 8 0 0 1 574 2327.200007867813 L 574 2389.200007867813 L 574 2389.200007867813 A 8 8 0 0 1 566 2397.200007867813 L 34 2397.200007867813 L 34 2397.200007867813 A 8 8 0 0 1 26 2389.200007867813 L 26 2327.200007867813 L 26 2327.200007867813 A 8 8 0 0 1 34 2319.200007867813 L 300 2319.200007867813 Z" fill-opacity="1" stroke-opacity="1" stroke-miterlimit="10" stroke-width="5"/><text fill="rgb(0,0,0)" stroke="none" font-family="Avenir, Helvetica, Arial, sans-serif" font-size="32px" font-style="normal" font-weight="bold" text-decoration="normal" x="300" y="2374.200007867813" text-anchor="middle" dominant-baseline="text-after-edge" fill-opacity="1">speculative_enabled</text><path fill="rgb(225,240,255)" stroke="rgb(29,122,218)" paint-order="fill stroke markers" d=" M 903.0000007152557 2319.200007867813 L 1169.0000007152557 2319.200007867813 L 1169.0000007152557 2319.200007867813 A 8 8 0 0 1 1177.0000007152557 2327.200007867813 L 1177.0000007152557 2389.200007867813 L 1177.0000007152557 2389.200007867813 A 8 8 0 0 1 1169.0000007152557 2397.200007867813 L 637.0000007152557 2397.200007867813 L 637.0000007152557 2397.200007867813 A 8 8 0 0 1 629.0000007152557 2389.200007867813 L 629.0000007152557 2327.200007867813 L 629.0000007152557 2327.200007867813 A 8 8 0 0 1 637.0000007152557 2319.200007867813 L 903.0000007152557 2319.200007867813 Z" fill-opacity="1" stroke-opacity="1" stroke-miterlimit="10" stroke-width="5"/><text fill="rgb(0,0,0)" stroke="none" font-family="Avenir, Helvetica, Arial, sans-serif" font-size="32px" font-style="normal" font-weight="bold" text-decoration="normal" x="903.0000007152557" y="2374.200007867813" text-anchor="middle" dominant-baseline="text-after-edge" fill-opacity="1">global_remote_state</text><path fill="rgb(40,167,69)" stroke="none" paint-order="stroke fill markers" d=" M 1403.0000007152557 361 L 1669.0000007152557 361 L 1669.0000007152557 361 A 8 8 0 0 1 1677.0000007152557 369 L 1677.0000007152557 431 L 1677.0000007152557 431 A 8 8 0 0 1 1669.0000007152557 439 L 1137.0000007152557 439 L 1137.0000007152557 439 A 8 8 0 0 1 1129.0000007152557 431 L 1129.0000007152557 369 L 1129.0000007152557 369 A 8 8 0 0 1 1137.0000007152557 361 L 1403.0000007152557 361 Z" fill-opacity="1"/><text fill="rgb(255,255,255)" stroke="none" font-family="Avenir, Helvetica, Arial, sans-serif" font-size="32px" font-style="normal" font-weight="bold" text-decoration="normal" x="1403.0000007152557" y="416" text-anchor="middle" dominant-baseline="text-after-edge" fill-opacity="1">default</text><g transform="scale(10,10) translate(-28.1,-4.75)"/></g></svg>